<svg width="70" height="70" viewBox="0 0 70 70" fill="none" xmlns="http://www.w3.org/2000/svg">
<rect width="70" height="70" rx="35" fill="url(#paint0_linear_793_2416)"/>
<path d="M35.0026 19.3333C38.118 19.3333 39.6757 19.3333 40.8359 20.0031C41.596 20.442 42.2272 21.0732 42.6661 21.8333C43.3359 22.9935 43.3359 24.5512 43.3359 27.6666L43.3359 44.3333C43.3359 47.4486 43.3359 49.0063 42.6661 50.1666C42.2272 50.9267 41.596 51.5579 40.8359 51.9967C39.6757 52.6666 38.118 52.6666 35.0026 52.6666C31.8872 52.6666 30.3295 52.6666 29.1693 51.9967C28.4092 51.5579 27.778 50.9267 27.3391 50.1666C26.6693 49.0063 26.6693 47.4486 26.6693 44.3333L26.6693 27.6666C26.6693 24.5512 26.6693 22.9935 27.3391 21.8333C27.778 21.0732 28.4092 20.442 29.1693 20.0031C30.3295 19.3333 31.8872 19.3333 35.0026 19.3333Z" stroke="white" stroke-width="2"/>
<path d="M48.3307 47.6666C50.1717 47.6666 51.6641 46.1742 51.6641 44.3333L51.6641 27.6666C51.6641 25.8256 50.1717 24.3333 48.3307 24.3333" stroke="white" stroke-width="2"/>
<path d="M21.6641 47.6667C19.8231 47.6667 18.3307 46.1743 18.3307 44.3334L18.3307 27.6667C18.3307 25.8258 19.8231 24.3334 21.6641 24.3334" stroke="white" stroke-width="2"/>
<rect x="37.5026" y="25.1667" width="8.33333" height="1.66667" rx="0.833333" transform="rotate(90 37.5026 25.1667)" stroke="white" stroke-width="1.66667"/>
<defs>
<linearGradient id="paint0_linear_793_2416" x1="0" y1="0" x2="70" y2="70" gradientUnits="userSpaceOnUse">
<stop stop-color="#3C8CE7"/>
<stop offset="1" stop-color="#00FFC2"/>
</linearGradient>
</defs>
</svg>
