<svg width="101" height="18" viewBox="0 0 101 18" fill="none" xmlns="http://www.w3.org/2000/svg">
<mask id="path-1-outside-1_967_2437" maskUnits="userSpaceOnUse" x="-0.703125" y="-0.506836" width="102" height="18" fill="black">
<rect fill="white" x="-0.703125" y="-0.506836" width="102" height="18"/>
<path d="M12.5369 3.37316C12.7769 3.66116 12.9449 3.89316 13.0409 4.06916C13.1369 4.24516 13.1849 4.41316 13.1849 4.57316C13.1849 4.76516 13.0569 4.98916 12.8009 5.24516C12.5609 5.50116 12.3209 5.62916 12.0809 5.62916C11.7609 5.62916 11.5049 5.58116 11.3129 5.48516C11.1209 5.38916 10.9609 5.23716 10.8329 5.02916C10.5769 4.64516 10.2649 4.31716 9.89688 4.04516C9.52888 3.75716 8.95288 3.61316 8.16888 3.61316C7.49688 3.61316 6.72888 3.76516 5.86488 4.06916C5.01688 4.37316 4.40888 4.74916 4.04088 5.19716C3.72088 5.59716 3.44088 6.20516 3.20088 7.02116C2.97688 7.83716 2.86488 8.62916 2.86488 9.39716C2.86488 10.3252 3.06488 11.1812 3.46488 11.9652C3.88088 12.7332 4.47288 13.3492 5.24088 13.8132C6.02488 14.2772 6.96088 14.5092 8.04888 14.5092C8.64088 14.5092 9.24888 14.3972 9.87288 14.1732C10.5129 13.9332 11.0649 13.5492 11.5289 13.0212H11.5049C11.7929 12.7172 12.1529 12.5652 12.5849 12.5652C12.8409 12.5652 13.0809 12.6772 13.3049 12.9012C13.5449 13.1252 13.6649 13.3492 13.6649 13.5732C13.6649 13.8132 13.6249 14.0292 13.5449 14.2212C13.4809 14.3972 13.3529 14.5972 13.1609 14.8212C12.5049 15.5572 11.7289 16.0612 10.8329 16.3332C9.93688 16.6052 8.86488 16.7412 7.61688 16.7412C6.51288 16.7412 5.39288 16.4772 4.25688 15.9492C3.13688 15.4212 2.27288 14.7812 1.66488 14.0292C1.34488 13.5652 1.03288 12.9012 0.728875 12.0372C0.440875 11.1572 0.296875 10.4452 0.296875 9.90116C0.296875 8.50916 0.504875 7.18916 0.920875 5.94116C1.35288 4.67716 1.99288 3.66916 2.84088 2.91716C3.40088 2.40516 4.20888 2.02116 5.26487 1.76516C6.32088 1.50916 7.28888 1.38116 8.16888 1.38116C9.24088 1.38116 10.0809 1.53316 10.6889 1.83716C11.3129 2.12516 11.9289 2.63716 12.5369 3.37316Z"/>
<path d="M26.7108 15.5412C26.7108 15.8932 26.5187 16.1892 26.1348 16.4292C25.7668 16.6692 25.4228 16.7892 25.1028 16.7892C24.4948 16.7892 24.0068 16.7172 23.6388 16.5732C23.2868 16.4132 22.9588 16.1252 22.6548 15.7092C22.2388 16.0772 21.6707 16.3572 20.9508 16.5492C20.2308 16.7252 19.5667 16.8132 18.9587 16.8132C17.9667 16.8132 17.1507 16.5492 16.5107 16.0212C15.8707 15.4772 15.5507 14.6852 15.5507 13.6452C15.5507 13.1972 15.6708 12.7892 15.9108 12.4212C16.1508 12.0372 16.4788 11.7012 16.8948 11.4132C17.3588 11.1092 17.8867 10.8772 18.4788 10.7172C19.0708 10.5412 19.6868 10.4532 20.3267 10.4532C20.6628 10.4532 21.0627 10.5172 21.5268 10.6452C21.9907 10.7732 22.3507 10.9092 22.6068 11.0532V10.6692C22.6068 9.80516 22.3988 9.21316 21.9827 8.89316C21.5667 8.55716 20.8948 8.38916 19.9668 8.38916C19.6948 8.38916 19.4227 8.44516 19.1507 8.55716C18.8947 8.66916 18.5988 8.82116 18.2628 9.01316C17.8148 9.25316 17.3907 9.37316 16.9907 9.37316C16.8467 9.37316 16.7108 9.27716 16.5828 9.08516C16.4548 8.87716 16.3908 8.69316 16.3908 8.53316C16.3908 8.06916 16.6068 7.66916 17.0387 7.33316C17.4867 6.99716 18.0147 6.74916 18.6227 6.58916C19.2307 6.41316 19.7747 6.32516 20.2547 6.32516C20.7347 6.32516 21.2868 6.42116 21.9108 6.61316C22.5348 6.78916 23.0468 7.03716 23.4468 7.35716C23.9268 7.77316 24.2948 8.26116 24.5508 8.82116C24.8228 9.36516 24.9588 9.96516 24.9588 10.6212C24.9588 10.8292 24.9428 11.1412 24.9108 11.5572C24.8788 12.0052 24.8628 12.3892 24.8628 12.7092C24.8628 12.8532 24.8468 13.0692 24.8148 13.3572C24.7828 13.7092 24.7668 13.9892 24.7668 14.1972C24.7668 14.3892 24.8387 14.5572 24.9827 14.7012C25.1268 14.8292 25.2948 14.8932 25.4867 14.8932L26.1588 14.8692C26.3348 14.8692 26.4708 14.9332 26.5668 15.0612C26.6628 15.1892 26.7108 15.3492 26.7108 15.5412ZM18.9827 14.9172C19.6707 14.9172 20.2467 14.8452 20.7108 14.7012C21.1748 14.5572 21.7348 14.2932 22.3908 13.9092C22.4548 13.6372 22.4948 13.2772 22.5107 12.8292C21.6308 12.4132 20.9028 12.2052 20.3267 12.2052C19.6707 12.2052 19.0868 12.3252 18.5748 12.5652C18.0628 12.8052 17.8067 13.2292 17.8067 13.8372C17.8067 14.1412 17.9347 14.3972 18.1908 14.6052C18.4468 14.8132 18.7108 14.9172 18.9827 14.9172Z"/>
<path d="M31.8584 15.7332C31.8584 16.0052 31.7544 16.2452 31.5464 16.4532C31.3384 16.6612 31.0824 16.7652 30.7784 16.7652C30.2984 16.7652 29.9464 16.6772 29.7224 16.5012C29.4984 16.3092 29.3864 15.9652 29.3864 15.4692C29.3864 14.8772 29.3704 14.1012 29.3384 13.1412C29.3064 12.3412 29.2904 11.6692 29.2904 11.1252C29.2904 10.8692 29.3064 10.5332 29.3384 10.1172C29.3704 9.73316 29.3864 9.44516 29.3864 9.25316C29.3384 8.94916 29.2184 8.70116 29.0264 8.50916C28.8344 8.30116 28.5864 8.19716 28.2824 8.19716C28.1384 8.19716 28.0184 8.13316 27.9224 8.00516C27.8264 7.86116 27.7784 7.71716 27.7784 7.57316C27.7784 7.20516 27.9224 6.92516 28.2104 6.73316C28.5144 6.54116 28.8744 6.44516 29.2904 6.44516C30.1544 6.44516 30.7544 6.95716 31.0904 7.98116C31.5064 7.50116 31.9784 7.11716 32.5064 6.82916C33.0504 6.52516 33.5704 6.37316 34.0664 6.37316C34.6584 6.37316 35.1944 6.53316 35.6744 6.85316C36.1704 7.17316 36.4184 7.60516 36.4184 8.14916C36.4184 8.45316 36.2824 8.76516 36.0104 9.08516C35.7544 9.40516 35.4904 9.56516 35.2184 9.56516C35.0744 9.56516 34.9464 9.53316 34.8344 9.46916C34.7384 9.38916 34.6184 9.27716 34.4744 9.13316C34.3144 8.97316 34.1784 8.86116 34.0664 8.79716C33.9544 8.71716 33.8264 8.67716 33.6824 8.67716C33.4264 8.67716 33.1864 8.71716 32.9624 8.79716C32.7384 8.87716 32.5864 8.97316 32.5064 9.08516C32.2504 9.48516 32.0584 9.84516 31.9304 10.1652C31.8184 10.4852 31.7624 10.8292 31.7624 11.1972C31.7624 11.4692 31.7544 11.6852 31.7384 11.8452L31.7144 13.2132C31.7144 13.4212 31.7224 13.6532 31.7384 13.9092C31.7544 14.1652 31.7704 14.3572 31.7864 14.4852C31.8344 14.9172 31.8584 15.3332 31.8584 15.7332Z"/>
<path d="M47.3014 8.98916C47.4294 9.21316 47.5334 9.54116 47.6134 9.97316C47.6934 10.3892 47.7334 10.7652 47.7334 11.1012C47.7334 11.5332 47.6854 12.0132 47.5894 12.5412C47.4934 13.0692 47.4054 13.4772 47.3254 13.7652C46.2214 15.7812 44.5894 16.7892 42.4294 16.7892C41.6294 16.7892 40.8134 16.5252 39.9814 15.9972C39.1494 15.4692 38.5734 14.8612 38.2534 14.1732C37.8214 12.8132 37.6054 11.9412 37.6054 11.5572C37.6054 10.9172 37.7414 10.2372 38.0134 9.51716C38.3014 8.79716 38.6614 8.17316 39.0934 7.64516C39.3814 7.27716 39.8774 6.96516 40.5814 6.70916C41.2854 6.43716 41.9254 6.30116 42.5014 6.30116C43.6214 6.30116 44.5654 6.51716 45.3334 6.94916C46.1174 7.36516 46.7734 8.04516 47.3014 8.98916ZM45.2134 12.8532C45.2934 12.6932 45.3334 12.1572 45.3334 11.2452C45.3334 10.7812 45.2454 10.3252 45.0694 9.87716C44.9094 9.42916 44.6694 9.04516 44.3494 8.72516C44.3174 8.69316 44.2294 8.64516 44.0854 8.58116C43.9414 8.50116 43.7414 8.42916 43.4854 8.36516C43.2454 8.28516 42.9654 8.24516 42.6454 8.24516C41.7494 8.24516 41.0934 8.60516 40.6774 9.32516C40.2614 10.0452 40.0534 10.8612 40.0534 11.7732C40.0534 11.9172 40.1014 12.2132 40.1974 12.6612C40.2934 13.1092 40.3654 13.3972 40.4134 13.5252C40.5414 13.7492 40.7974 14.0132 41.1814 14.3172C41.5814 14.6052 42.0134 14.7492 42.4774 14.7492C43.1974 14.7492 43.7654 14.5812 44.1814 14.2452C44.6134 13.8932 44.9574 13.4292 45.2134 12.8532Z"/>
<path d="M49.7689 8.60516C49.6409 8.60516 49.5289 8.55716 49.4329 8.46116C49.3369 8.34916 49.2889 8.22116 49.2889 8.07716C49.2889 7.61316 49.4409 7.26116 49.7449 7.02116C50.0489 6.76516 50.4249 6.63716 50.8729 6.63716C51.4969 6.63716 52.0329 6.80516 52.4809 7.14116C52.9449 7.46116 53.1769 7.92516 53.1769 8.53316C53.1769 8.69316 53.1449 9.30116 53.0809 10.3572C53.0169 11.5732 52.9849 12.3812 52.9849 12.7812C52.9849 13.3412 53.0889 13.7972 53.2969 14.1492C53.5209 14.4852 53.8649 14.6532 54.3289 14.6532C55.2249 14.6532 55.9129 14.1572 56.3929 13.1652C56.8889 12.1572 57.2169 10.9252 57.3769 9.46916C57.4409 8.82916 57.5369 8.15716 57.6649 7.45316C57.7289 7.06916 57.8169 6.78916 57.9289 6.61316C58.0409 6.43716 58.2569 6.34916 58.5769 6.34916C58.7849 6.34916 59.0249 6.39716 59.2969 6.49316C59.5849 6.58916 59.7689 6.71716 59.8489 6.87716C59.9449 7.11716 59.9929 7.38116 59.9929 7.66916C59.9929 8.06916 59.9369 8.58916 59.8249 9.22916C59.6969 9.86916 59.6089 10.5652 59.5609 11.3172C59.5289 11.9892 59.6329 12.6932 59.8729 13.4292C60.1129 14.1652 60.4569 14.6452 60.9049 14.8692C61.4169 15.1252 61.6729 15.3572 61.6729 15.5652C61.6729 15.9012 61.5529 16.1652 61.3129 16.3572C61.0729 16.5492 60.8409 16.6452 60.6169 16.6452C60.0249 16.6452 59.4889 16.4292 59.0089 15.9972C58.5449 15.5652 58.2089 15.0292 58.0009 14.3892C57.6649 14.9012 57.3369 15.3252 57.0169 15.6612C56.7129 15.9812 56.3209 16.2532 55.8409 16.4772C55.3609 16.6852 54.7689 16.7892 54.0649 16.7892C53.2329 16.7892 52.4729 16.4932 51.7849 15.9012C51.1129 15.3092 50.7769 14.2932 50.7769 12.8532C50.7769 12.4532 50.7849 12.0292 50.8009 11.5812C50.8329 11.1332 50.8489 10.8132 50.8489 10.6212C50.8969 10.0452 50.9209 9.51716 50.9209 9.03716C50.9209 8.89316 50.8649 8.77316 50.7529 8.67716C50.6569 8.58116 50.5449 8.53316 50.4169 8.53316C50.3209 8.53316 50.2089 8.54916 50.0809 8.58116C49.9689 8.59716 49.8649 8.60516 49.7689 8.60516Z"/>
<path d="M70.0889 11.5092C70.2169 11.5892 70.4649 11.7412 70.8329 11.9652C71.2169 12.1732 71.4729 12.4212 71.6009 12.7092C71.7289 12.9972 71.7929 13.3972 71.7929 13.9092C71.7929 14.4852 71.6249 14.9972 71.2889 15.4452C70.9529 15.8772 70.5209 16.2132 69.9929 16.4532C69.6249 16.6132 69.2249 16.7092 68.7929 16.7412C68.3769 16.7732 67.8729 16.7892 67.2809 16.7892C66.9609 16.7892 66.5449 16.7412 66.0329 16.6452C65.5369 16.5492 65.1929 16.4612 65.0009 16.3812C64.4889 16.0932 64.0569 15.7572 63.7049 15.3732C63.3529 14.9892 63.1769 14.5972 63.1769 14.1972C63.1769 13.8772 63.2809 13.6212 63.4889 13.4292C63.6969 13.2372 63.9689 13.1412 64.3049 13.1412C64.4809 13.1412 64.6489 13.1892 64.8089 13.2852C64.9849 13.3652 65.1049 13.4612 65.1689 13.5732C65.3449 13.9892 65.6409 14.3012 66.0569 14.5092C66.4729 14.7172 66.8969 14.8212 67.3289 14.8212C68.8489 14.8212 69.6089 14.5492 69.6089 14.0052C69.6089 13.8612 69.5689 13.7492 69.4889 13.6692C69.4249 13.5732 69.3289 13.4772 69.2009 13.3812C68.9929 13.2372 68.6969 13.0852 68.3129 12.9252C67.9449 12.7652 67.6169 12.6452 67.3289 12.5652C66.6729 12.4212 66.0329 12.2052 65.4089 11.9172C64.8329 11.6292 64.3609 11.2532 63.9929 10.7892C63.6249 10.3092 63.4409 9.72516 63.4409 9.03716C63.4409 8.62116 63.5929 8.21316 63.8969 7.81316C64.2169 7.39716 64.5849 7.08516 65.0009 6.87716C65.2889 6.76516 65.7609 6.64516 66.4169 6.51716C67.0729 6.38916 67.5209 6.32516 67.7609 6.32516C68.1289 6.32516 68.5289 6.36516 68.9609 6.44516C69.3929 6.50916 69.7209 6.62116 69.9449 6.78116C70.3769 7.03716 70.7289 7.30916 71.0009 7.59716C71.2729 7.86916 71.4089 8.18116 71.4089 8.53316C71.4089 8.70916 71.3689 8.90116 71.2889 9.10916C71.2089 9.30116 71.1129 9.42116 71.0009 9.46916C70.7609 9.58116 70.4809 9.63716 70.1609 9.63716C70.0169 9.63716 69.8969 9.59716 69.8009 9.51716C69.7209 9.43716 69.6089 9.30916 69.4649 9.13316C69.2889 8.86116 69.1209 8.70116 68.9609 8.65316C68.7689 8.60516 68.4889 8.54916 68.1209 8.48516C67.7529 8.40516 67.5049 8.36516 67.3769 8.36516C66.9769 8.36516 66.5929 8.44516 66.2249 8.60516C65.8729 8.76516 65.6969 8.98116 65.6969 9.25316C65.6969 9.57316 65.9609 9.84516 66.4889 10.0692C66.8249 10.2292 67.1929 10.3652 67.5929 10.4772C68.0089 10.5892 68.2649 10.6612 68.3609 10.6932C68.5849 10.7412 68.8729 10.8532 69.2249 11.0292C69.5929 11.2052 69.8809 11.3652 70.0889 11.5092Z"/>
<path d="M73.8644 11.6052C73.8644 10.9972 73.9764 10.3892 74.2004 9.78116C74.4244 9.15716 74.7204 8.58916 75.0884 8.07716C75.4564 7.56516 76.0404 7.14916 76.8404 6.82916C77.6404 6.49316 78.3524 6.32516 78.9764 6.32516C79.6164 6.32516 80.2644 6.41316 80.9204 6.58916C81.5924 6.76516 82.0564 7.03716 82.3124 7.40516C82.9044 8.23716 83.2004 9.05316 83.2004 9.85316C83.2004 10.2852 83.1044 10.6532 82.9124 10.9572C82.7364 11.2612 82.4804 11.5892 82.1444 11.9412C81.8724 12.2292 81.4404 12.4212 80.8484 12.5172C80.2724 12.6132 79.6964 12.6612 79.1204 12.6612C78.7524 12.6612 78.3044 12.6292 77.7764 12.5652C77.2484 12.4852 76.7364 12.3892 76.2404 12.2772C76.2724 12.5972 76.3524 12.9092 76.4804 13.2132C76.6084 13.5172 76.7604 13.7492 76.9364 13.9092C77.2564 14.2132 77.5844 14.4052 77.9204 14.4852C78.2724 14.5652 78.7204 14.6052 79.2644 14.6052C79.8404 14.6052 80.3764 14.5092 80.8724 14.3172C81.2724 14.1732 81.6004 14.1012 81.8564 14.1012C82.1604 14.1012 82.3924 14.1972 82.5524 14.3892C82.7124 14.5652 82.7924 14.7972 82.7924 15.0852C82.7924 15.4852 82.5604 15.8132 82.0964 16.0692C81.6324 16.3252 81.0964 16.5172 80.4884 16.6452C79.8964 16.7572 79.4164 16.8132 79.0484 16.8132C78.2964 16.8132 77.5684 16.6772 76.8644 16.4052C76.1604 16.1332 75.5764 15.7492 75.1124 15.2532C74.7284 14.8052 74.4244 14.2692 74.2004 13.6452C73.9764 13.0052 73.8644 12.3252 73.8644 11.6052ZM79.0964 8.36516C78.7444 8.36516 78.3924 8.43716 78.0404 8.58116C77.6884 8.70916 77.4004 8.89316 77.1764 9.13316C76.8884 9.43716 76.6884 9.68516 76.5764 9.87716C76.4804 10.0532 76.4164 10.3012 76.3844 10.6212C76.7844 10.7492 77.6164 10.8132 78.8804 10.8132C79.5684 10.8132 80.0964 10.7092 80.4644 10.5012C80.8484 10.2932 81.0404 10.0212 81.0404 9.68516C81.0404 9.34916 80.8324 9.04516 80.4164 8.77316C80.0004 8.50116 79.5604 8.36516 79.0964 8.36516Z"/>
<path d="M88.1819 12.9732C88.1819 13.5812 88.2699 14.0532 88.4459 14.3892C88.6379 14.7092 88.8779 14.8692 89.1659 14.8692C89.3259 14.8692 89.4779 14.8612 89.6219 14.8452C89.7659 14.8132 89.9099 14.7972 90.0539 14.7972C90.2139 14.7972 90.3499 14.8772 90.4619 15.0372C90.5899 15.1972 90.6539 15.3732 90.6539 15.5652C90.6539 15.9492 90.4699 16.2532 90.1019 16.4772C89.7499 16.6852 89.2699 16.7892 88.6619 16.7892C88.2299 16.7892 87.7899 16.6612 87.3419 16.4052C86.9099 16.1332 86.5499 15.7172 86.2619 15.1572C85.9739 14.5812 85.8299 13.8692 85.8299 13.0212C85.8299 11.1972 85.8619 9.65316 85.9259 8.38916C86.0059 6.88516 86.0459 4.98916 86.0459 2.70116C86.0459 1.98116 86.0859 1.47716 86.1659 1.18916C86.2619 0.965164 86.4139 0.797163 86.6219 0.685163C86.8459 0.557164 87.0779 0.493164 87.3179 0.493164C87.5579 0.493164 87.7659 0.533164 87.9419 0.613164C88.1339 0.693164 88.2619 0.821164 88.3259 0.997163C88.3899 1.18916 88.4299 1.38116 88.4459 1.57316C88.4779 1.74916 88.4939 2.00516 88.4939 2.34116C88.4939 2.99716 88.4699 3.62916 88.4219 4.23716C88.3899 4.97316 88.3739 5.50916 88.3739 5.84516C88.2459 8.66116 88.1819 11.0372 88.1819 12.9732Z"/>
<path d="M99.0107 11.2932C99.1387 11.3732 99.3867 11.5252 99.7548 11.7492C100.139 11.9572 100.395 12.2052 100.523 12.4932C100.651 12.7812 100.715 13.1812 100.715 13.6932C100.715 14.2692 100.547 14.7812 100.211 15.2292C99.8747 15.6612 99.4427 15.9972 98.9147 16.2372C98.5307 16.4132 98.0587 16.5492 97.4987 16.6452C96.9548 16.7412 96.5228 16.7892 96.2028 16.7892C95.8828 16.7892 95.4668 16.7412 94.9548 16.6452C94.4587 16.5492 94.1148 16.4612 93.9228 16.3812C93.4268 16.0932 92.9948 15.7412 92.6267 15.3252C92.2747 14.9092 92.0987 14.4852 92.0987 14.0532C92.0987 13.7332 92.2028 13.4852 92.4108 13.3092C92.6188 13.1172 92.8908 13.0212 93.2268 13.0212C93.3868 13.0212 93.5547 13.0852 93.7308 13.2132C93.9068 13.3252 94.0267 13.4452 94.0908 13.5732C94.2668 13.9892 94.5628 14.3012 94.9788 14.5092C95.3948 14.7172 95.8187 14.8212 96.2507 14.8212C96.8107 14.8212 97.3307 14.7332 97.8108 14.5572C98.2908 14.3652 98.5308 14.1092 98.5308 13.7892C98.5308 13.6452 98.4908 13.5332 98.4108 13.4532C98.3467 13.3572 98.2507 13.2612 98.1227 13.1652C97.8988 13.0052 97.5628 12.8772 97.1148 12.7812C96.6668 12.6692 96.3787 12.5972 96.2507 12.5652C95.5947 12.4212 94.9548 12.2052 94.3307 11.9172C93.7067 11.6132 93.2108 11.2532 92.8428 10.8372C92.4747 10.4212 92.2907 9.88516 92.2907 9.22916C92.2907 8.79716 92.4508 8.34916 92.7708 7.88516C93.0908 7.40516 93.4508 7.06916 93.8508 6.87716C94.1388 6.76516 94.6188 6.64516 95.2907 6.51716C95.9788 6.38916 96.4427 6.32516 96.6827 6.32516C97.0507 6.32516 97.4508 6.36516 97.8828 6.44516C98.3148 6.50916 98.6428 6.62116 98.8668 6.78116C99.2988 7.03716 99.6507 7.30916 99.9228 7.59716C100.195 7.86916 100.331 8.18116 100.331 8.53316C100.331 8.70916 100.291 8.90116 100.211 9.10916C100.131 9.30116 100.035 9.42116 99.9228 9.46916C99.6828 9.58116 99.4027 9.63716 99.0827 9.63716C98.9388 9.63716 98.8187 9.59716 98.7227 9.51716C98.6427 9.43716 98.5307 9.30916 98.3867 9.13316C98.2107 8.86116 98.0428 8.70116 97.8828 8.65316C97.6908 8.60516 97.4108 8.54916 97.0427 8.48516C96.6747 8.40516 96.4268 8.36516 96.2988 8.36516C95.9308 8.36516 95.5468 8.46916 95.1468 8.67716C94.7627 8.88516 94.5707 9.12516 94.5707 9.39716C94.5707 9.54116 94.6267 9.65316 94.7387 9.73316C94.8667 9.81316 94.9948 9.88516 95.1227 9.94916C95.2667 10.0132 95.3628 10.0532 95.4108 10.0692C95.7467 10.2292 96.1147 10.3652 96.5147 10.4772C96.9307 10.5892 97.1868 10.6612 97.2828 10.6932C98.1468 10.9012 98.7227 11.1012 99.0107 11.2932Z"/>
</mask>
<path d="M12.5369 3.37316C12.7769 3.66116 12.9449 3.89316 13.0409 4.06916C13.1369 4.24516 13.1849 4.41316 13.1849 4.57316C13.1849 4.76516 13.0569 4.98916 12.8009 5.24516C12.5609 5.50116 12.3209 5.62916 12.0809 5.62916C11.7609 5.62916 11.5049 5.58116 11.3129 5.48516C11.1209 5.38916 10.9609 5.23716 10.8329 5.02916C10.5769 4.64516 10.2649 4.31716 9.89688 4.04516C9.52888 3.75716 8.95288 3.61316 8.16888 3.61316C7.49688 3.61316 6.72888 3.76516 5.86488 4.06916C5.01688 4.37316 4.40888 4.74916 4.04088 5.19716C3.72088 5.59716 3.44088 6.20516 3.20088 7.02116C2.97688 7.83716 2.86488 8.62916 2.86488 9.39716C2.86488 10.3252 3.06488 11.1812 3.46488 11.9652C3.88088 12.7332 4.47288 13.3492 5.24088 13.8132C6.02488 14.2772 6.96088 14.5092 8.04888 14.5092C8.64088 14.5092 9.24888 14.3972 9.87288 14.1732C10.5129 13.9332 11.0649 13.5492 11.5289 13.0212H11.5049C11.7929 12.7172 12.1529 12.5652 12.5849 12.5652C12.8409 12.5652 13.0809 12.6772 13.3049 12.9012C13.5449 13.1252 13.6649 13.3492 13.6649 13.5732C13.6649 13.8132 13.6249 14.0292 13.5449 14.2212C13.4809 14.3972 13.3529 14.5972 13.1609 14.8212C12.5049 15.5572 11.7289 16.0612 10.8329 16.3332C9.93688 16.6052 8.86488 16.7412 7.61688 16.7412C6.51288 16.7412 5.39288 16.4772 4.25688 15.9492C3.13688 15.4212 2.27288 14.7812 1.66488 14.0292C1.34488 13.5652 1.03288 12.9012 0.728875 12.0372C0.440875 11.1572 0.296875 10.4452 0.296875 9.90116C0.296875 8.50916 0.504875 7.18916 0.920875 5.94116C1.35288 4.67716 1.99288 3.66916 2.84088 2.91716C3.40088 2.40516 4.20888 2.02116 5.26487 1.76516C6.32088 1.50916 7.28888 1.38116 8.16888 1.38116C9.24088 1.38116 10.0809 1.53316 10.6889 1.83716C11.3129 2.12516 11.9289 2.63716 12.5369 3.37316Z" fill="url(#paint0_linear_967_2437)"/>
<path d="M26.7108 15.5412C26.7108 15.8932 26.5187 16.1892 26.1348 16.4292C25.7668 16.6692 25.4228 16.7892 25.1028 16.7892C24.4948 16.7892 24.0068 16.7172 23.6388 16.5732C23.2868 16.4132 22.9588 16.1252 22.6548 15.7092C22.2388 16.0772 21.6707 16.3572 20.9508 16.5492C20.2308 16.7252 19.5667 16.8132 18.9587 16.8132C17.9667 16.8132 17.1507 16.5492 16.5107 16.0212C15.8707 15.4772 15.5507 14.6852 15.5507 13.6452C15.5507 13.1972 15.6708 12.7892 15.9108 12.4212C16.1508 12.0372 16.4788 11.7012 16.8948 11.4132C17.3588 11.1092 17.8867 10.8772 18.4788 10.7172C19.0708 10.5412 19.6868 10.4532 20.3267 10.4532C20.6628 10.4532 21.0627 10.5172 21.5268 10.6452C21.9907 10.7732 22.3507 10.9092 22.6068 11.0532V10.6692C22.6068 9.80516 22.3988 9.21316 21.9827 8.89316C21.5667 8.55716 20.8948 8.38916 19.9668 8.38916C19.6948 8.38916 19.4227 8.44516 19.1507 8.55716C18.8947 8.66916 18.5988 8.82116 18.2628 9.01316C17.8148 9.25316 17.3907 9.37316 16.9907 9.37316C16.8467 9.37316 16.7108 9.27716 16.5828 9.08516C16.4548 8.87716 16.3908 8.69316 16.3908 8.53316C16.3908 8.06916 16.6068 7.66916 17.0387 7.33316C17.4867 6.99716 18.0147 6.74916 18.6227 6.58916C19.2307 6.41316 19.7747 6.32516 20.2547 6.32516C20.7347 6.32516 21.2868 6.42116 21.9108 6.61316C22.5348 6.78916 23.0468 7.03716 23.4468 7.35716C23.9268 7.77316 24.2948 8.26116 24.5508 8.82116C24.8228 9.36516 24.9588 9.96516 24.9588 10.6212C24.9588 10.8292 24.9428 11.1412 24.9108 11.5572C24.8788 12.0052 24.8628 12.3892 24.8628 12.7092C24.8628 12.8532 24.8468 13.0692 24.8148 13.3572C24.7828 13.7092 24.7668 13.9892 24.7668 14.1972C24.7668 14.3892 24.8387 14.5572 24.9827 14.7012C25.1268 14.8292 25.2948 14.8932 25.4867 14.8932L26.1588 14.8692C26.3348 14.8692 26.4708 14.9332 26.5668 15.0612C26.6628 15.1892 26.7108 15.3492 26.7108 15.5412ZM18.9827 14.9172C19.6707 14.9172 20.2467 14.8452 20.7108 14.7012C21.1748 14.5572 21.7348 14.2932 22.3908 13.9092C22.4548 13.6372 22.4948 13.2772 22.5107 12.8292C21.6308 12.4132 20.9028 12.2052 20.3267 12.2052C19.6707 12.2052 19.0868 12.3252 18.5748 12.5652C18.0628 12.8052 17.8067 13.2292 17.8067 13.8372C17.8067 14.1412 17.9347 14.3972 18.1908 14.6052C18.4468 14.8132 18.7108 14.9172 18.9827 14.9172Z" fill="url(#paint1_linear_967_2437)"/>
<path d="M31.8584 15.7332C31.8584 16.0052 31.7544 16.2452 31.5464 16.4532C31.3384 16.6612 31.0824 16.7652 30.7784 16.7652C30.2984 16.7652 29.9464 16.6772 29.7224 16.5012C29.4984 16.3092 29.3864 15.9652 29.3864 15.4692C29.3864 14.8772 29.3704 14.1012 29.3384 13.1412C29.3064 12.3412 29.2904 11.6692 29.2904 11.1252C29.2904 10.8692 29.3064 10.5332 29.3384 10.1172C29.3704 9.73316 29.3864 9.44516 29.3864 9.25316C29.3384 8.94916 29.2184 8.70116 29.0264 8.50916C28.8344 8.30116 28.5864 8.19716 28.2824 8.19716C28.1384 8.19716 28.0184 8.13316 27.9224 8.00516C27.8264 7.86116 27.7784 7.71716 27.7784 7.57316C27.7784 7.20516 27.9224 6.92516 28.2104 6.73316C28.5144 6.54116 28.8744 6.44516 29.2904 6.44516C30.1544 6.44516 30.7544 6.95716 31.0904 7.98116C31.5064 7.50116 31.9784 7.11716 32.5064 6.82916C33.0504 6.52516 33.5704 6.37316 34.0664 6.37316C34.6584 6.37316 35.1944 6.53316 35.6744 6.85316C36.1704 7.17316 36.4184 7.60516 36.4184 8.14916C36.4184 8.45316 36.2824 8.76516 36.0104 9.08516C35.7544 9.40516 35.4904 9.56516 35.2184 9.56516C35.0744 9.56516 34.9464 9.53316 34.8344 9.46916C34.7384 9.38916 34.6184 9.27716 34.4744 9.13316C34.3144 8.97316 34.1784 8.86116 34.0664 8.79716C33.9544 8.71716 33.8264 8.67716 33.6824 8.67716C33.4264 8.67716 33.1864 8.71716 32.9624 8.79716C32.7384 8.87716 32.5864 8.97316 32.5064 9.08516C32.2504 9.48516 32.0584 9.84516 31.9304 10.1652C31.8184 10.4852 31.7624 10.8292 31.7624 11.1972C31.7624 11.4692 31.7544 11.6852 31.7384 11.8452L31.7144 13.2132C31.7144 13.4212 31.7224 13.6532 31.7384 13.9092C31.7544 14.1652 31.7704 14.3572 31.7864 14.4852C31.8344 14.9172 31.8584 15.3332 31.8584 15.7332Z" fill="url(#paint2_linear_967_2437)"/>
<path d="M47.3014 8.98916C47.4294 9.21316 47.5334 9.54116 47.6134 9.97316C47.6934 10.3892 47.7334 10.7652 47.7334 11.1012C47.7334 11.5332 47.6854 12.0132 47.5894 12.5412C47.4934 13.0692 47.4054 13.4772 47.3254 13.7652C46.2214 15.7812 44.5894 16.7892 42.4294 16.7892C41.6294 16.7892 40.8134 16.5252 39.9814 15.9972C39.1494 15.4692 38.5734 14.8612 38.2534 14.1732C37.8214 12.8132 37.6054 11.9412 37.6054 11.5572C37.6054 10.9172 37.7414 10.2372 38.0134 9.51716C38.3014 8.79716 38.6614 8.17316 39.0934 7.64516C39.3814 7.27716 39.8774 6.96516 40.5814 6.70916C41.2854 6.43716 41.9254 6.30116 42.5014 6.30116C43.6214 6.30116 44.5654 6.51716 45.3334 6.94916C46.1174 7.36516 46.7734 8.04516 47.3014 8.98916ZM45.2134 12.8532C45.2934 12.6932 45.3334 12.1572 45.3334 11.2452C45.3334 10.7812 45.2454 10.3252 45.0694 9.87716C44.9094 9.42916 44.6694 9.04516 44.3494 8.72516C44.3174 8.69316 44.2294 8.64516 44.0854 8.58116C43.9414 8.50116 43.7414 8.42916 43.4854 8.36516C43.2454 8.28516 42.9654 8.24516 42.6454 8.24516C41.7494 8.24516 41.0934 8.60516 40.6774 9.32516C40.2614 10.0452 40.0534 10.8612 40.0534 11.7732C40.0534 11.9172 40.1014 12.2132 40.1974 12.6612C40.2934 13.1092 40.3654 13.3972 40.4134 13.5252C40.5414 13.7492 40.7974 14.0132 41.1814 14.3172C41.5814 14.6052 42.0134 14.7492 42.4774 14.7492C43.1974 14.7492 43.7654 14.5812 44.1814 14.2452C44.6134 13.8932 44.9574 13.4292 45.2134 12.8532Z" fill="url(#paint3_linear_967_2437)"/>
<path d="M49.7689 8.60516C49.6409 8.60516 49.5289 8.55716 49.4329 8.46116C49.3369 8.34916 49.2889 8.22116 49.2889 8.07716C49.2889 7.61316 49.4409 7.26116 49.7449 7.02116C50.0489 6.76516 50.4249 6.63716 50.8729 6.63716C51.4969 6.63716 52.0329 6.80516 52.4809 7.14116C52.9449 7.46116 53.1769 7.92516 53.1769 8.53316C53.1769 8.69316 53.1449 9.30116 53.0809 10.3572C53.0169 11.5732 52.9849 12.3812 52.9849 12.7812C52.9849 13.3412 53.0889 13.7972 53.2969 14.1492C53.5209 14.4852 53.8649 14.6532 54.3289 14.6532C55.2249 14.6532 55.9129 14.1572 56.3929 13.1652C56.8889 12.1572 57.2169 10.9252 57.3769 9.46916C57.4409 8.82916 57.5369 8.15716 57.6649 7.45316C57.7289 7.06916 57.8169 6.78916 57.9289 6.61316C58.0409 6.43716 58.2569 6.34916 58.5769 6.34916C58.7849 6.34916 59.0249 6.39716 59.2969 6.49316C59.5849 6.58916 59.7689 6.71716 59.8489 6.87716C59.9449 7.11716 59.9929 7.38116 59.9929 7.66916C59.9929 8.06916 59.9369 8.58916 59.8249 9.22916C59.6969 9.86916 59.6089 10.5652 59.5609 11.3172C59.5289 11.9892 59.6329 12.6932 59.8729 13.4292C60.1129 14.1652 60.4569 14.6452 60.9049 14.8692C61.4169 15.1252 61.6729 15.3572 61.6729 15.5652C61.6729 15.9012 61.5529 16.1652 61.3129 16.3572C61.0729 16.5492 60.8409 16.6452 60.6169 16.6452C60.0249 16.6452 59.4889 16.4292 59.0089 15.9972C58.5449 15.5652 58.2089 15.0292 58.0009 14.3892C57.6649 14.9012 57.3369 15.3252 57.0169 15.6612C56.7129 15.9812 56.3209 16.2532 55.8409 16.4772C55.3609 16.6852 54.7689 16.7892 54.0649 16.7892C53.2329 16.7892 52.4729 16.4932 51.7849 15.9012C51.1129 15.3092 50.7769 14.2932 50.7769 12.8532C50.7769 12.4532 50.7849 12.0292 50.8009 11.5812C50.8329 11.1332 50.8489 10.8132 50.8489 10.6212C50.8969 10.0452 50.9209 9.51716 50.9209 9.03716C50.9209 8.89316 50.8649 8.77316 50.7529 8.67716C50.6569 8.58116 50.5449 8.53316 50.4169 8.53316C50.3209 8.53316 50.2089 8.54916 50.0809 8.58116C49.9689 8.59716 49.8649 8.60516 49.7689 8.60516Z" fill="url(#paint4_linear_967_2437)"/>
<path d="M70.0889 11.5092C70.2169 11.5892 70.4649 11.7412 70.8329 11.9652C71.2169 12.1732 71.4729 12.4212 71.6009 12.7092C71.7289 12.9972 71.7929 13.3972 71.7929 13.9092C71.7929 14.4852 71.6249 14.9972 71.2889 15.4452C70.9529 15.8772 70.5209 16.2132 69.9929 16.4532C69.6249 16.6132 69.2249 16.7092 68.7929 16.7412C68.3769 16.7732 67.8729 16.7892 67.2809 16.7892C66.9609 16.7892 66.5449 16.7412 66.0329 16.6452C65.5369 16.5492 65.1929 16.4612 65.0009 16.3812C64.4889 16.0932 64.0569 15.7572 63.7049 15.3732C63.3529 14.9892 63.1769 14.5972 63.1769 14.1972C63.1769 13.8772 63.2809 13.6212 63.4889 13.4292C63.6969 13.2372 63.9689 13.1412 64.3049 13.1412C64.4809 13.1412 64.6489 13.1892 64.8089 13.2852C64.9849 13.3652 65.1049 13.4612 65.1689 13.5732C65.3449 13.9892 65.6409 14.3012 66.0569 14.5092C66.4729 14.7172 66.8969 14.8212 67.3289 14.8212C68.8489 14.8212 69.6089 14.5492 69.6089 14.0052C69.6089 13.8612 69.5689 13.7492 69.4889 13.6692C69.4249 13.5732 69.3289 13.4772 69.2009 13.3812C68.9929 13.2372 68.6969 13.0852 68.3129 12.9252C67.9449 12.7652 67.6169 12.6452 67.3289 12.5652C66.6729 12.4212 66.0329 12.2052 65.4089 11.9172C64.8329 11.6292 64.3609 11.2532 63.9929 10.7892C63.6249 10.3092 63.4409 9.72516 63.4409 9.03716C63.4409 8.62116 63.5929 8.21316 63.8969 7.81316C64.2169 7.39716 64.5849 7.08516 65.0009 6.87716C65.2889 6.76516 65.7609 6.64516 66.4169 6.51716C67.0729 6.38916 67.5209 6.32516 67.7609 6.32516C68.1289 6.32516 68.5289 6.36516 68.9609 6.44516C69.3929 6.50916 69.7209 6.62116 69.9449 6.78116C70.3769 7.03716 70.7289 7.30916 71.0009 7.59716C71.2729 7.86916 71.4089 8.18116 71.4089 8.53316C71.4089 8.70916 71.3689 8.90116 71.2889 9.10916C71.2089 9.30116 71.1129 9.42116 71.0009 9.46916C70.7609 9.58116 70.4809 9.63716 70.1609 9.63716C70.0169 9.63716 69.8969 9.59716 69.8009 9.51716C69.7209 9.43716 69.6089 9.30916 69.4649 9.13316C69.2889 8.86116 69.1209 8.70116 68.9609 8.65316C68.7689 8.60516 68.4889 8.54916 68.1209 8.48516C67.7529 8.40516 67.5049 8.36516 67.3769 8.36516C66.9769 8.36516 66.5929 8.44516 66.2249 8.60516C65.8729 8.76516 65.6969 8.98116 65.6969 9.25316C65.6969 9.57316 65.9609 9.84516 66.4889 10.0692C66.8249 10.2292 67.1929 10.3652 67.5929 10.4772C68.0089 10.5892 68.2649 10.6612 68.3609 10.6932C68.5849 10.7412 68.8729 10.8532 69.2249 11.0292C69.5929 11.2052 69.8809 11.3652 70.0889 11.5092Z" fill="url(#paint5_linear_967_2437)"/>
<path d="M73.8644 11.6052C73.8644 10.9972 73.9764 10.3892 74.2004 9.78116C74.4244 9.15716 74.7204 8.58916 75.0884 8.07716C75.4564 7.56516 76.0404 7.14916 76.8404 6.82916C77.6404 6.49316 78.3524 6.32516 78.9764 6.32516C79.6164 6.32516 80.2644 6.41316 80.9204 6.58916C81.5924 6.76516 82.0564 7.03716 82.3124 7.40516C82.9044 8.23716 83.2004 9.05316 83.2004 9.85316C83.2004 10.2852 83.1044 10.6532 82.9124 10.9572C82.7364 11.2612 82.4804 11.5892 82.1444 11.9412C81.8724 12.2292 81.4404 12.4212 80.8484 12.5172C80.2724 12.6132 79.6964 12.6612 79.1204 12.6612C78.7524 12.6612 78.3044 12.6292 77.7764 12.5652C77.2484 12.4852 76.7364 12.3892 76.2404 12.2772C76.2724 12.5972 76.3524 12.9092 76.4804 13.2132C76.6084 13.5172 76.7604 13.7492 76.9364 13.9092C77.2564 14.2132 77.5844 14.4052 77.9204 14.4852C78.2724 14.5652 78.7204 14.6052 79.2644 14.6052C79.8404 14.6052 80.3764 14.5092 80.8724 14.3172C81.2724 14.1732 81.6004 14.1012 81.8564 14.1012C82.1604 14.1012 82.3924 14.1972 82.5524 14.3892C82.7124 14.5652 82.7924 14.7972 82.7924 15.0852C82.7924 15.4852 82.5604 15.8132 82.0964 16.0692C81.6324 16.3252 81.0964 16.5172 80.4884 16.6452C79.8964 16.7572 79.4164 16.8132 79.0484 16.8132C78.2964 16.8132 77.5684 16.6772 76.8644 16.4052C76.1604 16.1332 75.5764 15.7492 75.1124 15.2532C74.7284 14.8052 74.4244 14.2692 74.2004 13.6452C73.9764 13.0052 73.8644 12.3252 73.8644 11.6052ZM79.0964 8.36516C78.7444 8.36516 78.3924 8.43716 78.0404 8.58116C77.6884 8.70916 77.4004 8.89316 77.1764 9.13316C76.8884 9.43716 76.6884 9.68516 76.5764 9.87716C76.4804 10.0532 76.4164 10.3012 76.3844 10.6212C76.7844 10.7492 77.6164 10.8132 78.8804 10.8132C79.5684 10.8132 80.0964 10.7092 80.4644 10.5012C80.8484 10.2932 81.0404 10.0212 81.0404 9.68516C81.0404 9.34916 80.8324 9.04516 80.4164 8.77316C80.0004 8.50116 79.5604 8.36516 79.0964 8.36516Z" fill="url(#paint6_linear_967_2437)"/>
<path d="M88.1819 12.9732C88.1819 13.5812 88.2699 14.0532 88.4459 14.3892C88.6379 14.7092 88.8779 14.8692 89.1659 14.8692C89.3259 14.8692 89.4779 14.8612 89.6219 14.8452C89.7659 14.8132 89.9099 14.7972 90.0539 14.7972C90.2139 14.7972 90.3499 14.8772 90.4619 15.0372C90.5899 15.1972 90.6539 15.3732 90.6539 15.5652C90.6539 15.9492 90.4699 16.2532 90.1019 16.4772C89.7499 16.6852 89.2699 16.7892 88.6619 16.7892C88.2299 16.7892 87.7899 16.6612 87.3419 16.4052C86.9099 16.1332 86.5499 15.7172 86.2619 15.1572C85.9739 14.5812 85.8299 13.8692 85.8299 13.0212C85.8299 11.1972 85.8619 9.65316 85.9259 8.38916C86.0059 6.88516 86.0459 4.98916 86.0459 2.70116C86.0459 1.98116 86.0859 1.47716 86.1659 1.18916C86.2619 0.965164 86.4139 0.797163 86.6219 0.685163C86.8459 0.557164 87.0779 0.493164 87.3179 0.493164C87.5579 0.493164 87.7659 0.533164 87.9419 0.613164C88.1339 0.693164 88.2619 0.821164 88.3259 0.997163C88.3899 1.18916 88.4299 1.38116 88.4459 1.57316C88.4779 1.74916 88.4939 2.00516 88.4939 2.34116C88.4939 2.99716 88.4699 3.62916 88.4219 4.23716C88.3899 4.97316 88.3739 5.50916 88.3739 5.84516C88.2459 8.66116 88.1819 11.0372 88.1819 12.9732Z" fill="url(#paint7_linear_967_2437)"/>
<path d="M99.0107 11.2932C99.1387 11.3732 99.3867 11.5252 99.7548 11.7492C100.139 11.9572 100.395 12.2052 100.523 12.4932C100.651 12.7812 100.715 13.1812 100.715 13.6932C100.715 14.2692 100.547 14.7812 100.211 15.2292C99.8747 15.6612 99.4427 15.9972 98.9147 16.2372C98.5307 16.4132 98.0587 16.5492 97.4987 16.6452C96.9548 16.7412 96.5228 16.7892 96.2028 16.7892C95.8828 16.7892 95.4668 16.7412 94.9548 16.6452C94.4587 16.5492 94.1148 16.4612 93.9228 16.3812C93.4268 16.0932 92.9948 15.7412 92.6267 15.3252C92.2747 14.9092 92.0987 14.4852 92.0987 14.0532C92.0987 13.7332 92.2028 13.4852 92.4108 13.3092C92.6188 13.1172 92.8908 13.0212 93.2268 13.0212C93.3868 13.0212 93.5547 13.0852 93.7308 13.2132C93.9068 13.3252 94.0267 13.4452 94.0908 13.5732C94.2668 13.9892 94.5628 14.3012 94.9788 14.5092C95.3948 14.7172 95.8187 14.8212 96.2507 14.8212C96.8107 14.8212 97.3307 14.7332 97.8108 14.5572C98.2908 14.3652 98.5308 14.1092 98.5308 13.7892C98.5308 13.6452 98.4908 13.5332 98.4108 13.4532C98.3467 13.3572 98.2507 13.2612 98.1227 13.1652C97.8988 13.0052 97.5628 12.8772 97.1148 12.7812C96.6668 12.6692 96.3787 12.5972 96.2507 12.5652C95.5947 12.4212 94.9548 12.2052 94.3307 11.9172C93.7067 11.6132 93.2108 11.2532 92.8428 10.8372C92.4747 10.4212 92.2907 9.88516 92.2907 9.22916C92.2907 8.79716 92.4508 8.34916 92.7708 7.88516C93.0908 7.40516 93.4508 7.06916 93.8508 6.87716C94.1388 6.76516 94.6188 6.64516 95.2907 6.51716C95.9788 6.38916 96.4427 6.32516 96.6827 6.32516C97.0507 6.32516 97.4508 6.36516 97.8828 6.44516C98.3148 6.50916 98.6428 6.62116 98.8668 6.78116C99.2988 7.03716 99.6507 7.30916 99.9228 7.59716C100.195 7.86916 100.331 8.18116 100.331 8.53316C100.331 8.70916 100.291 8.90116 100.211 9.10916C100.131 9.30116 100.035 9.42116 99.9228 9.46916C99.6828 9.58116 99.4027 9.63716 99.0827 9.63716C98.9388 9.63716 98.8187 9.59716 98.7227 9.51716C98.6427 9.43716 98.5307 9.30916 98.3867 9.13316C98.2107 8.86116 98.0428 8.70116 97.8828 8.65316C97.6908 8.60516 97.4108 8.54916 97.0427 8.48516C96.6747 8.40516 96.4268 8.36516 96.2988 8.36516C95.9308 8.36516 95.5468 8.46916 95.1468 8.67716C94.7627 8.88516 94.5707 9.12516 94.5707 9.39716C94.5707 9.54116 94.6267 9.65316 94.7387 9.73316C94.8667 9.81316 94.9948 9.88516 95.1227 9.94916C95.2667 10.0132 95.3628 10.0532 95.4108 10.0692C95.7467 10.2292 96.1147 10.3652 96.5147 10.4772C96.9307 10.5892 97.1868 10.6612 97.2828 10.6932C98.1468 10.9012 98.7227 11.1012 99.0107 11.2932Z" fill="url(#paint8_linear_967_2437)"/>
<path d="M12.5369 3.37316C12.7769 3.66116 12.9449 3.89316 13.0409 4.06916C13.1369 4.24516 13.1849 4.41316 13.1849 4.57316C13.1849 4.76516 13.0569 4.98916 12.8009 5.24516C12.5609 5.50116 12.3209 5.62916 12.0809 5.62916C11.7609 5.62916 11.5049 5.58116 11.3129 5.48516C11.1209 5.38916 10.9609 5.23716 10.8329 5.02916C10.5769 4.64516 10.2649 4.31716 9.89688 4.04516C9.52888 3.75716 8.95288 3.61316 8.16888 3.61316C7.49688 3.61316 6.72888 3.76516 5.86488 4.06916C5.01688 4.37316 4.40888 4.74916 4.04088 5.19716C3.72088 5.59716 3.44088 6.20516 3.20088 7.02116C2.97688 7.83716 2.86488 8.62916 2.86488 9.39716C2.86488 10.3252 3.06488 11.1812 3.46488 11.9652C3.88088 12.7332 4.47288 13.3492 5.24088 13.8132C6.02488 14.2772 6.96088 14.5092 8.04888 14.5092C8.64088 14.5092 9.24888 14.3972 9.87288 14.1732C10.5129 13.9332 11.0649 13.5492 11.5289 13.0212H11.5049C11.7929 12.7172 12.1529 12.5652 12.5849 12.5652C12.8409 12.5652 13.0809 12.6772 13.3049 12.9012C13.5449 13.1252 13.6649 13.3492 13.6649 13.5732C13.6649 13.8132 13.6249 14.0292 13.5449 14.2212C13.4809 14.3972 13.3529 14.5972 13.1609 14.8212C12.5049 15.5572 11.7289 16.0612 10.8329 16.3332C9.93688 16.6052 8.86488 16.7412 7.61688 16.7412C6.51288 16.7412 5.39288 16.4772 4.25688 15.9492C3.13688 15.4212 2.27288 14.7812 1.66488 14.0292C1.34488 13.5652 1.03288 12.9012 0.728875 12.0372C0.440875 11.1572 0.296875 10.4452 0.296875 9.90116C0.296875 8.50916 0.504875 7.18916 0.920875 5.94116C1.35288 4.67716 1.99288 3.66916 2.84088 2.91716C3.40088 2.40516 4.20888 2.02116 5.26487 1.76516C6.32088 1.50916 7.28888 1.38116 8.16888 1.38116C9.24088 1.38116 10.0809 1.53316 10.6889 1.83716C11.3129 2.12516 11.9289 2.63716 12.5369 3.37316Z" stroke="url(#paint9_linear_967_2437)" stroke-width="0.4" mask="url(#path-1-outside-1_967_2437)"/>
<path d="M26.7108 15.5412C26.7108 15.8932 26.5187 16.1892 26.1348 16.4292C25.7668 16.6692 25.4228 16.7892 25.1028 16.7892C24.4948 16.7892 24.0068 16.7172 23.6388 16.5732C23.2868 16.4132 22.9588 16.1252 22.6548 15.7092C22.2388 16.0772 21.6707 16.3572 20.9508 16.5492C20.2308 16.7252 19.5667 16.8132 18.9587 16.8132C17.9667 16.8132 17.1507 16.5492 16.5107 16.0212C15.8707 15.4772 15.5507 14.6852 15.5507 13.6452C15.5507 13.1972 15.6708 12.7892 15.9108 12.4212C16.1508 12.0372 16.4788 11.7012 16.8948 11.4132C17.3588 11.1092 17.8867 10.8772 18.4788 10.7172C19.0708 10.5412 19.6868 10.4532 20.3267 10.4532C20.6628 10.4532 21.0627 10.5172 21.5268 10.6452C21.9907 10.7732 22.3507 10.9092 22.6068 11.0532V10.6692C22.6068 9.80516 22.3988 9.21316 21.9827 8.89316C21.5667 8.55716 20.8948 8.38916 19.9668 8.38916C19.6948 8.38916 19.4227 8.44516 19.1507 8.55716C18.8947 8.66916 18.5988 8.82116 18.2628 9.01316C17.8148 9.25316 17.3907 9.37316 16.9907 9.37316C16.8467 9.37316 16.7108 9.27716 16.5828 9.08516C16.4548 8.87716 16.3908 8.69316 16.3908 8.53316C16.3908 8.06916 16.6068 7.66916 17.0387 7.33316C17.4867 6.99716 18.0147 6.74916 18.6227 6.58916C19.2307 6.41316 19.7747 6.32516 20.2547 6.32516C20.7347 6.32516 21.2868 6.42116 21.9108 6.61316C22.5348 6.78916 23.0468 7.03716 23.4468 7.35716C23.9268 7.77316 24.2948 8.26116 24.5508 8.82116C24.8228 9.36516 24.9588 9.96516 24.9588 10.6212C24.9588 10.8292 24.9428 11.1412 24.9108 11.5572C24.8788 12.0052 24.8628 12.3892 24.8628 12.7092C24.8628 12.8532 24.8468 13.0692 24.8148 13.3572C24.7828 13.7092 24.7668 13.9892 24.7668 14.1972C24.7668 14.3892 24.8387 14.5572 24.9827 14.7012C25.1268 14.8292 25.2948 14.8932 25.4867 14.8932L26.1588 14.8692C26.3348 14.8692 26.4708 14.9332 26.5668 15.0612C26.6628 15.1892 26.7108 15.3492 26.7108 15.5412ZM18.9827 14.9172C19.6707 14.9172 20.2467 14.8452 20.7108 14.7012C21.1748 14.5572 21.7348 14.2932 22.3908 13.9092C22.4548 13.6372 22.4948 13.2772 22.5107 12.8292C21.6308 12.4132 20.9028 12.2052 20.3267 12.2052C19.6707 12.2052 19.0868 12.3252 18.5748 12.5652C18.0628 12.8052 17.8067 13.2292 17.8067 13.8372C17.8067 14.1412 17.9347 14.3972 18.1908 14.6052C18.4468 14.8132 18.7108 14.9172 18.9827 14.9172Z" stroke="url(#paint10_linear_967_2437)" stroke-width="0.4" mask="url(#path-1-outside-1_967_2437)"/>
<path d="M31.8584 15.7332C31.8584 16.0052 31.7544 16.2452 31.5464 16.4532C31.3384 16.6612 31.0824 16.7652 30.7784 16.7652C30.2984 16.7652 29.9464 16.6772 29.7224 16.5012C29.4984 16.3092 29.3864 15.9652 29.3864 15.4692C29.3864 14.8772 29.3704 14.1012 29.3384 13.1412C29.3064 12.3412 29.2904 11.6692 29.2904 11.1252C29.2904 10.8692 29.3064 10.5332 29.3384 10.1172C29.3704 9.73316 29.3864 9.44516 29.3864 9.25316C29.3384 8.94916 29.2184 8.70116 29.0264 8.50916C28.8344 8.30116 28.5864 8.19716 28.2824 8.19716C28.1384 8.19716 28.0184 8.13316 27.9224 8.00516C27.8264 7.86116 27.7784 7.71716 27.7784 7.57316C27.7784 7.20516 27.9224 6.92516 28.2104 6.73316C28.5144 6.54116 28.8744 6.44516 29.2904 6.44516C30.1544 6.44516 30.7544 6.95716 31.0904 7.98116C31.5064 7.50116 31.9784 7.11716 32.5064 6.82916C33.0504 6.52516 33.5704 6.37316 34.0664 6.37316C34.6584 6.37316 35.1944 6.53316 35.6744 6.85316C36.1704 7.17316 36.4184 7.60516 36.4184 8.14916C36.4184 8.45316 36.2824 8.76516 36.0104 9.08516C35.7544 9.40516 35.4904 9.56516 35.2184 9.56516C35.0744 9.56516 34.9464 9.53316 34.8344 9.46916C34.7384 9.38916 34.6184 9.27716 34.4744 9.13316C34.3144 8.97316 34.1784 8.86116 34.0664 8.79716C33.9544 8.71716 33.8264 8.67716 33.6824 8.67716C33.4264 8.67716 33.1864 8.71716 32.9624 8.79716C32.7384 8.87716 32.5864 8.97316 32.5064 9.08516C32.2504 9.48516 32.0584 9.84516 31.9304 10.1652C31.8184 10.4852 31.7624 10.8292 31.7624 11.1972C31.7624 11.4692 31.7544 11.6852 31.7384 11.8452L31.7144 13.2132C31.7144 13.4212 31.7224 13.6532 31.7384 13.9092C31.7544 14.1652 31.7704 14.3572 31.7864 14.4852C31.8344 14.9172 31.8584 15.3332 31.8584 15.7332Z" stroke="url(#paint11_linear_967_2437)" stroke-width="0.4" mask="url(#path-1-outside-1_967_2437)"/>
<path d="M47.3014 8.98916C47.4294 9.21316 47.5334 9.54116 47.6134 9.97316C47.6934 10.3892 47.7334 10.7652 47.7334 11.1012C47.7334 11.5332 47.6854 12.0132 47.5894 12.5412C47.4934 13.0692 47.4054 13.4772 47.3254 13.7652C46.2214 15.7812 44.5894 16.7892 42.4294 16.7892C41.6294 16.7892 40.8134 16.5252 39.9814 15.9972C39.1494 15.4692 38.5734 14.8612 38.2534 14.1732C37.8214 12.8132 37.6054 11.9412 37.6054 11.5572C37.6054 10.9172 37.7414 10.2372 38.0134 9.51716C38.3014 8.79716 38.6614 8.17316 39.0934 7.64516C39.3814 7.27716 39.8774 6.96516 40.5814 6.70916C41.2854 6.43716 41.9254 6.30116 42.5014 6.30116C43.6214 6.30116 44.5654 6.51716 45.3334 6.94916C46.1174 7.36516 46.7734 8.04516 47.3014 8.98916ZM45.2134 12.8532C45.2934 12.6932 45.3334 12.1572 45.3334 11.2452C45.3334 10.7812 45.2454 10.3252 45.0694 9.87716C44.9094 9.42916 44.6694 9.04516 44.3494 8.72516C44.3174 8.69316 44.2294 8.64516 44.0854 8.58116C43.9414 8.50116 43.7414 8.42916 43.4854 8.36516C43.2454 8.28516 42.9654 8.24516 42.6454 8.24516C41.7494 8.24516 41.0934 8.60516 40.6774 9.32516C40.2614 10.0452 40.0534 10.8612 40.0534 11.7732C40.0534 11.9172 40.1014 12.2132 40.1974 12.6612C40.2934 13.1092 40.3654 13.3972 40.4134 13.5252C40.5414 13.7492 40.7974 14.0132 41.1814 14.3172C41.5814 14.6052 42.0134 14.7492 42.4774 14.7492C43.1974 14.7492 43.7654 14.5812 44.1814 14.2452C44.6134 13.8932 44.9574 13.4292 45.2134 12.8532Z" stroke="url(#paint12_linear_967_2437)" stroke-width="0.4" mask="url(#path-1-outside-1_967_2437)"/>
<path d="M49.7689 8.60516C49.6409 8.60516 49.5289 8.55716 49.4329 8.46116C49.3369 8.34916 49.2889 8.22116 49.2889 8.07716C49.2889 7.61316 49.4409 7.26116 49.7449 7.02116C50.0489 6.76516 50.4249 6.63716 50.8729 6.63716C51.4969 6.63716 52.0329 6.80516 52.4809 7.14116C52.9449 7.46116 53.1769 7.92516 53.1769 8.53316C53.1769 8.69316 53.1449 9.30116 53.0809 10.3572C53.0169 11.5732 52.9849 12.3812 52.9849 12.7812C52.9849 13.3412 53.0889 13.7972 53.2969 14.1492C53.5209 14.4852 53.8649 14.6532 54.3289 14.6532C55.2249 14.6532 55.9129 14.1572 56.3929 13.1652C56.8889 12.1572 57.2169 10.9252 57.3769 9.46916C57.4409 8.82916 57.5369 8.15716 57.6649 7.45316C57.7289 7.06916 57.8169 6.78916 57.9289 6.61316C58.0409 6.43716 58.2569 6.34916 58.5769 6.34916C58.7849 6.34916 59.0249 6.39716 59.2969 6.49316C59.5849 6.58916 59.7689 6.71716 59.8489 6.87716C59.9449 7.11716 59.9929 7.38116 59.9929 7.66916C59.9929 8.06916 59.9369 8.58916 59.8249 9.22916C59.6969 9.86916 59.6089 10.5652 59.5609 11.3172C59.5289 11.9892 59.6329 12.6932 59.8729 13.4292C60.1129 14.1652 60.4569 14.6452 60.9049 14.8692C61.4169 15.1252 61.6729 15.3572 61.6729 15.5652C61.6729 15.9012 61.5529 16.1652 61.3129 16.3572C61.0729 16.5492 60.8409 16.6452 60.6169 16.6452C60.0249 16.6452 59.4889 16.4292 59.0089 15.9972C58.5449 15.5652 58.2089 15.0292 58.0009 14.3892C57.6649 14.9012 57.3369 15.3252 57.0169 15.6612C56.7129 15.9812 56.3209 16.2532 55.8409 16.4772C55.3609 16.6852 54.7689 16.7892 54.0649 16.7892C53.2329 16.7892 52.4729 16.4932 51.7849 15.9012C51.1129 15.3092 50.7769 14.2932 50.7769 12.8532C50.7769 12.4532 50.7849 12.0292 50.8009 11.5812C50.8329 11.1332 50.8489 10.8132 50.8489 10.6212C50.8969 10.0452 50.9209 9.51716 50.9209 9.03716C50.9209 8.89316 50.8649 8.77316 50.7529 8.67716C50.6569 8.58116 50.5449 8.53316 50.4169 8.53316C50.3209 8.53316 50.2089 8.54916 50.0809 8.58116C49.9689 8.59716 49.8649 8.60516 49.7689 8.60516Z" stroke="url(#paint13_linear_967_2437)" stroke-width="0.4" mask="url(#path-1-outside-1_967_2437)"/>
<path d="M70.0889 11.5092C70.2169 11.5892 70.4649 11.7412 70.8329 11.9652C71.2169 12.1732 71.4729 12.4212 71.6009 12.7092C71.7289 12.9972 71.7929 13.3972 71.7929 13.9092C71.7929 14.4852 71.6249 14.9972 71.2889 15.4452C70.9529 15.8772 70.5209 16.2132 69.9929 16.4532C69.6249 16.6132 69.2249 16.7092 68.7929 16.7412C68.3769 16.7732 67.8729 16.7892 67.2809 16.7892C66.9609 16.7892 66.5449 16.7412 66.0329 16.6452C65.5369 16.5492 65.1929 16.4612 65.0009 16.3812C64.4889 16.0932 64.0569 15.7572 63.7049 15.3732C63.3529 14.9892 63.1769 14.5972 63.1769 14.1972C63.1769 13.8772 63.2809 13.6212 63.4889 13.4292C63.6969 13.2372 63.9689 13.1412 64.3049 13.1412C64.4809 13.1412 64.6489 13.1892 64.8089 13.2852C64.9849 13.3652 65.1049 13.4612 65.1689 13.5732C65.3449 13.9892 65.6409 14.3012 66.0569 14.5092C66.4729 14.7172 66.8969 14.8212 67.3289 14.8212C68.8489 14.8212 69.6089 14.5492 69.6089 14.0052C69.6089 13.8612 69.5689 13.7492 69.4889 13.6692C69.4249 13.5732 69.3289 13.4772 69.2009 13.3812C68.9929 13.2372 68.6969 13.0852 68.3129 12.9252C67.9449 12.7652 67.6169 12.6452 67.3289 12.5652C66.6729 12.4212 66.0329 12.2052 65.4089 11.9172C64.8329 11.6292 64.3609 11.2532 63.9929 10.7892C63.6249 10.3092 63.4409 9.72516 63.4409 9.03716C63.4409 8.62116 63.5929 8.21316 63.8969 7.81316C64.2169 7.39716 64.5849 7.08516 65.0009 6.87716C65.2889 6.76516 65.7609 6.64516 66.4169 6.51716C67.0729 6.38916 67.5209 6.32516 67.7609 6.32516C68.1289 6.32516 68.5289 6.36516 68.9609 6.44516C69.3929 6.50916 69.7209 6.62116 69.9449 6.78116C70.3769 7.03716 70.7289 7.30916 71.0009 7.59716C71.2729 7.86916 71.4089 8.18116 71.4089 8.53316C71.4089 8.70916 71.3689 8.90116 71.2889 9.10916C71.2089 9.30116 71.1129 9.42116 71.0009 9.46916C70.7609 9.58116 70.4809 9.63716 70.1609 9.63716C70.0169 9.63716 69.8969 9.59716 69.8009 9.51716C69.7209 9.43716 69.6089 9.30916 69.4649 9.13316C69.2889 8.86116 69.1209 8.70116 68.9609 8.65316C68.7689 8.60516 68.4889 8.54916 68.1209 8.48516C67.7529 8.40516 67.5049 8.36516 67.3769 8.36516C66.9769 8.36516 66.5929 8.44516 66.2249 8.60516C65.8729 8.76516 65.6969 8.98116 65.6969 9.25316C65.6969 9.57316 65.9609 9.84516 66.4889 10.0692C66.8249 10.2292 67.1929 10.3652 67.5929 10.4772C68.0089 10.5892 68.2649 10.6612 68.3609 10.6932C68.5849 10.7412 68.8729 10.8532 69.2249 11.0292C69.5929 11.2052 69.8809 11.3652 70.0889 11.5092Z" stroke="url(#paint14_linear_967_2437)" stroke-width="0.4" mask="url(#path-1-outside-1_967_2437)"/>
<path d="M73.8644 11.6052C73.8644 10.9972 73.9764 10.3892 74.2004 9.78116C74.4244 9.15716 74.7204 8.58916 75.0884 8.07716C75.4564 7.56516 76.0404 7.14916 76.8404 6.82916C77.6404 6.49316 78.3524 6.32516 78.9764 6.32516C79.6164 6.32516 80.2644 6.41316 80.9204 6.58916C81.5924 6.76516 82.0564 7.03716 82.3124 7.40516C82.9044 8.23716 83.2004 9.05316 83.2004 9.85316C83.2004 10.2852 83.1044 10.6532 82.9124 10.9572C82.7364 11.2612 82.4804 11.5892 82.1444 11.9412C81.8724 12.2292 81.4404 12.4212 80.8484 12.5172C80.2724 12.6132 79.6964 12.6612 79.1204 12.6612C78.7524 12.6612 78.3044 12.6292 77.7764 12.5652C77.2484 12.4852 76.7364 12.3892 76.2404 12.2772C76.2724 12.5972 76.3524 12.9092 76.4804 13.2132C76.6084 13.5172 76.7604 13.7492 76.9364 13.9092C77.2564 14.2132 77.5844 14.4052 77.9204 14.4852C78.2724 14.5652 78.7204 14.6052 79.2644 14.6052C79.8404 14.6052 80.3764 14.5092 80.8724 14.3172C81.2724 14.1732 81.6004 14.1012 81.8564 14.1012C82.1604 14.1012 82.3924 14.1972 82.5524 14.3892C82.7124 14.5652 82.7924 14.7972 82.7924 15.0852C82.7924 15.4852 82.5604 15.8132 82.0964 16.0692C81.6324 16.3252 81.0964 16.5172 80.4884 16.6452C79.8964 16.7572 79.4164 16.8132 79.0484 16.8132C78.2964 16.8132 77.5684 16.6772 76.8644 16.4052C76.1604 16.1332 75.5764 15.7492 75.1124 15.2532C74.7284 14.8052 74.4244 14.2692 74.2004 13.6452C73.9764 13.0052 73.8644 12.3252 73.8644 11.6052ZM79.0964 8.36516C78.7444 8.36516 78.3924 8.43716 78.0404 8.58116C77.6884 8.70916 77.4004 8.89316 77.1764 9.13316C76.8884 9.43716 76.6884 9.68516 76.5764 9.87716C76.4804 10.0532 76.4164 10.3012 76.3844 10.6212C76.7844 10.7492 77.6164 10.8132 78.8804 10.8132C79.5684 10.8132 80.0964 10.7092 80.4644 10.5012C80.8484 10.2932 81.0404 10.0212 81.0404 9.68516C81.0404 9.34916 80.8324 9.04516 80.4164 8.77316C80.0004 8.50116 79.5604 8.36516 79.0964 8.36516Z" stroke="url(#paint15_linear_967_2437)" stroke-width="0.4" mask="url(#path-1-outside-1_967_2437)"/>
<path d="M88.1819 12.9732C88.1819 13.5812 88.2699 14.0532 88.4459 14.3892C88.6379 14.7092 88.8779 14.8692 89.1659 14.8692C89.3259 14.8692 89.4779 14.8612 89.6219 14.8452C89.7659 14.8132 89.9099 14.7972 90.0539 14.7972C90.2139 14.7972 90.3499 14.8772 90.4619 15.0372C90.5899 15.1972 90.6539 15.3732 90.6539 15.5652C90.6539 15.9492 90.4699 16.2532 90.1019 16.4772C89.7499 16.6852 89.2699 16.7892 88.6619 16.7892C88.2299 16.7892 87.7899 16.6612 87.3419 16.4052C86.9099 16.1332 86.5499 15.7172 86.2619 15.1572C85.9739 14.5812 85.8299 13.8692 85.8299 13.0212C85.8299 11.1972 85.8619 9.65316 85.9259 8.38916C86.0059 6.88516 86.0459 4.98916 86.0459 2.70116C86.0459 1.98116 86.0859 1.47716 86.1659 1.18916C86.2619 0.965164 86.4139 0.797163 86.6219 0.685163C86.8459 0.557164 87.0779 0.493164 87.3179 0.493164C87.5579 0.493164 87.7659 0.533164 87.9419 0.613164C88.1339 0.693164 88.2619 0.821164 88.3259 0.997163C88.3899 1.18916 88.4299 1.38116 88.4459 1.57316C88.4779 1.74916 88.4939 2.00516 88.4939 2.34116C88.4939 2.99716 88.4699 3.62916 88.4219 4.23716C88.3899 4.97316 88.3739 5.50916 88.3739 5.84516C88.2459 8.66116 88.1819 11.0372 88.1819 12.9732Z" stroke="url(#paint16_linear_967_2437)" stroke-width="0.4" mask="url(#path-1-outside-1_967_2437)"/>
<path d="M99.0107 11.2932C99.1387 11.3732 99.3867 11.5252 99.7548 11.7492C100.139 11.9572 100.395 12.2052 100.523 12.4932C100.651 12.7812 100.715 13.1812 100.715 13.6932C100.715 14.2692 100.547 14.7812 100.211 15.2292C99.8747 15.6612 99.4427 15.9972 98.9147 16.2372C98.5307 16.4132 98.0587 16.5492 97.4987 16.6452C96.9548 16.7412 96.5228 16.7892 96.2028 16.7892C95.8828 16.7892 95.4668 16.7412 94.9548 16.6452C94.4587 16.5492 94.1148 16.4612 93.9228 16.3812C93.4268 16.0932 92.9948 15.7412 92.6267 15.3252C92.2747 14.9092 92.0987 14.4852 92.0987 14.0532C92.0987 13.7332 92.2028 13.4852 92.4108 13.3092C92.6188 13.1172 92.8908 13.0212 93.2268 13.0212C93.3868 13.0212 93.5547 13.0852 93.7308 13.2132C93.9068 13.3252 94.0267 13.4452 94.0908 13.5732C94.2668 13.9892 94.5628 14.3012 94.9788 14.5092C95.3948 14.7172 95.8187 14.8212 96.2507 14.8212C96.8107 14.8212 97.3307 14.7332 97.8108 14.5572C98.2908 14.3652 98.5308 14.1092 98.5308 13.7892C98.5308 13.6452 98.4908 13.5332 98.4108 13.4532C98.3467 13.3572 98.2507 13.2612 98.1227 13.1652C97.8988 13.0052 97.5628 12.8772 97.1148 12.7812C96.6668 12.6692 96.3787 12.5972 96.2507 12.5652C95.5947 12.4212 94.9548 12.2052 94.3307 11.9172C93.7067 11.6132 93.2108 11.2532 92.8428 10.8372C92.4747 10.4212 92.2907 9.88516 92.2907 9.22916C92.2907 8.79716 92.4508 8.34916 92.7708 7.88516C93.0908 7.40516 93.4508 7.06916 93.8508 6.87716C94.1388 6.76516 94.6188 6.64516 95.2907 6.51716C95.9788 6.38916 96.4427 6.32516 96.6827 6.32516C97.0507 6.32516 97.4508 6.36516 97.8828 6.44516C98.3148 6.50916 98.6428 6.62116 98.8668 6.78116C99.2988 7.03716 99.6507 7.30916 99.9228 7.59716C100.195 7.86916 100.331 8.18116 100.331 8.53316C100.331 8.70916 100.291 8.90116 100.211 9.10916C100.131 9.30116 100.035 9.42116 99.9228 9.46916C99.6828 9.58116 99.4027 9.63716 99.0827 9.63716C98.9388 9.63716 98.8187 9.59716 98.7227 9.51716C98.6427 9.43716 98.5307 9.30916 98.3867 9.13316C98.2107 8.86116 98.0428 8.70116 97.8828 8.65316C97.6908 8.60516 97.4108 8.54916 97.0427 8.48516C96.6747 8.40516 96.4268 8.36516 96.2988 8.36516C95.9308 8.36516 95.5468 8.46916 95.1468 8.67716C94.7627 8.88516 94.5707 9.12516 94.5707 9.39716C94.5707 9.54116 94.6267 9.65316 94.7387 9.73316C94.8667 9.81316 94.9948 9.88516 95.1227 9.94916C95.2667 10.0132 95.3628 10.0532 95.4108 10.0692C95.7467 10.2292 96.1147 10.3652 96.5147 10.4772C96.9307 10.5892 97.1868 10.6612 97.2828 10.6932C98.1468 10.9012 98.7227 11.1012 99.0107 11.2932Z" stroke="url(#paint17_linear_967_2437)" stroke-width="0.4" mask="url(#path-1-outside-1_967_2437)"/>
<defs>
<linearGradient id="paint0_linear_967_2437" x1="0.296875" y1="0.493164" x2="5.46505" y2="32.2932" gradientUnits="userSpaceOnUse">
<stop stop-color="#3C8CE7"/>
<stop offset="1" stop-color="#00FFC2"/>
</linearGradient>
<linearGradient id="paint1_linear_967_2437" x1="0.296875" y1="0.493164" x2="5.46505" y2="32.2932" gradientUnits="userSpaceOnUse">
<stop stop-color="#3C8CE7"/>
<stop offset="1" stop-color="#00FFC2"/>
</linearGradient>
<linearGradient id="paint2_linear_967_2437" x1="0.296875" y1="0.493164" x2="5.46505" y2="32.2932" gradientUnits="userSpaceOnUse">
<stop stop-color="#3C8CE7"/>
<stop offset="1" stop-color="#00FFC2"/>
</linearGradient>
<linearGradient id="paint3_linear_967_2437" x1="0.296875" y1="0.493164" x2="5.46505" y2="32.2932" gradientUnits="userSpaceOnUse">
<stop stop-color="#3C8CE7"/>
<stop offset="1" stop-color="#00FFC2"/>
</linearGradient>
<linearGradient id="paint4_linear_967_2437" x1="0.296875" y1="0.493164" x2="5.46505" y2="32.2932" gradientUnits="userSpaceOnUse">
<stop stop-color="#3C8CE7"/>
<stop offset="1" stop-color="#00FFC2"/>
</linearGradient>
<linearGradient id="paint5_linear_967_2437" x1="0.296875" y1="0.493164" x2="5.46505" y2="32.2932" gradientUnits="userSpaceOnUse">
<stop stop-color="#3C8CE7"/>
<stop offset="1" stop-color="#00FFC2"/>
</linearGradient>
<linearGradient id="paint6_linear_967_2437" x1="0.296875" y1="0.493164" x2="5.46505" y2="32.2932" gradientUnits="userSpaceOnUse">
<stop stop-color="#3C8CE7"/>
<stop offset="1" stop-color="#00FFC2"/>
</linearGradient>
<linearGradient id="paint7_linear_967_2437" x1="0.296875" y1="0.493164" x2="5.46505" y2="32.2932" gradientUnits="userSpaceOnUse">
<stop stop-color="#3C8CE7"/>
<stop offset="1" stop-color="#00FFC2"/>
</linearGradient>
<linearGradient id="paint8_linear_967_2437" x1="0.296875" y1="0.493164" x2="5.46505" y2="32.2932" gradientUnits="userSpaceOnUse">
<stop stop-color="#3C8CE7"/>
<stop offset="1" stop-color="#00FFC2"/>
</linearGradient>
<linearGradient id="paint9_linear_967_2437" x1="0.296875" y1="0.493164" x2="5.46505" y2="32.2932" gradientUnits="userSpaceOnUse">
<stop stop-color="#3C8CE7"/>
<stop offset="1" stop-color="#00FFC2"/>
</linearGradient>
<linearGradient id="paint10_linear_967_2437" x1="0.296875" y1="0.493164" x2="5.46505" y2="32.2932" gradientUnits="userSpaceOnUse">
<stop stop-color="#3C8CE7"/>
<stop offset="1" stop-color="#00FFC2"/>
</linearGradient>
<linearGradient id="paint11_linear_967_2437" x1="0.296875" y1="0.493164" x2="5.46505" y2="32.2932" gradientUnits="userSpaceOnUse">
<stop stop-color="#3C8CE7"/>
<stop offset="1" stop-color="#00FFC2"/>
</linearGradient>
<linearGradient id="paint12_linear_967_2437" x1="0.296875" y1="0.493164" x2="5.46505" y2="32.2932" gradientUnits="userSpaceOnUse">
<stop stop-color="#3C8CE7"/>
<stop offset="1" stop-color="#00FFC2"/>
</linearGradient>
<linearGradient id="paint13_linear_967_2437" x1="0.296875" y1="0.493164" x2="5.46505" y2="32.2932" gradientUnits="userSpaceOnUse">
<stop stop-color="#3C8CE7"/>
<stop offset="1" stop-color="#00FFC2"/>
</linearGradient>
<linearGradient id="paint14_linear_967_2437" x1="0.296875" y1="0.493164" x2="5.46505" y2="32.2932" gradientUnits="userSpaceOnUse">
<stop stop-color="#3C8CE7"/>
<stop offset="1" stop-color="#00FFC2"/>
</linearGradient>
<linearGradient id="paint15_linear_967_2437" x1="0.296875" y1="0.493164" x2="5.46505" y2="32.2932" gradientUnits="userSpaceOnUse">
<stop stop-color="#3C8CE7"/>
<stop offset="1" stop-color="#00FFC2"/>
</linearGradient>
<linearGradient id="paint16_linear_967_2437" x1="0.296875" y1="0.493164" x2="5.46505" y2="32.2932" gradientUnits="userSpaceOnUse">
<stop stop-color="#3C8CE7"/>
<stop offset="1" stop-color="#00FFC2"/>
</linearGradient>
<linearGradient id="paint17_linear_967_2437" x1="0.296875" y1="0.493164" x2="5.46505" y2="32.2932" gradientUnits="userSpaceOnUse">
<stop stop-color="#3C8CE7"/>
<stop offset="1" stop-color="#00FFC2"/>
</linearGradient>
</defs>
</svg>
