<svg width="54" height="24" viewBox="0 0 54 24" fill="none" xmlns="http://www.w3.org/2000/svg">
<mask id="path-1-outside-1_967_2436" maskUnits="userSpaceOnUse" x="0.296875" y="0.186523" width="53" height="24" fill="black">
<rect fill="white" x="0.296875" y="0.186523" width="53" height="24"/>
<path d="M6.84088 1.45692C9.88728 1.45692 12.2953 1.88252 14.0649 2.73372C15.8569 3.56252 17.2121 4.49212 18.1305 5.52252C18.8697 6.37372 19.4745 7.35932 19.9449 8.47932C20.4153 9.57692 20.6505 10.8985 20.6505 12.4441C20.6505 13.5865 20.3929 14.7849 19.8777 16.0393C19.3625 17.2713 18.6905 18.2681 17.8617 19.0297C16.9881 19.8585 16.1593 20.5305 15.3753 21.0457C14.6137 21.5609 13.5721 21.9865 12.2505 22.3225C10.9513 22.6361 9.29368 22.7929 7.27768 22.7929C5.75448 22.7929 4.37688 22.6249 3.14488 22.2889C1.91288 21.9305 1.29688 21.3369 1.29688 20.5081C1.29688 20.1721 1.44248 19.9145 1.73368 19.7353C2.04728 19.5337 2.38328 19.4329 2.74168 19.4329C2.94328 19.4329 3.07768 19.4441 3.14488 19.4665C3.30168 17.9881 3.38008 16.4201 3.38008 14.7625C3.38008 12.9033 3.33528 11.3689 3.24568 10.1593C3.15608 8.92732 3.03288 7.70652 2.87608 6.49692C2.85368 6.34012 2.79768 5.90332 2.70808 5.18652C2.64088 4.46972 2.60728 3.74172 2.60728 3.00252C2.60728 2.53212 2.84248 2.14012 3.31288 1.82652C3.78328 1.49052 4.26488 1.32252 4.75768 1.32252C5.04888 1.32252 5.44088 1.34492 5.93368 1.38972C6.33688 1.43452 6.63928 1.45692 6.84088 1.45692ZM6.40408 19.6345C6.94168 19.7241 7.64728 19.7689 8.52088 19.7689C9.99928 19.7689 11.3993 19.4665 12.7209 18.8617C14.0425 18.2345 15.1065 17.3721 15.9129 16.2745C16.7193 15.1545 17.1225 13.8665 17.1225 12.4105C17.1225 10.8873 16.8537 9.58812 16.3161 8.51292C15.7785 7.43772 14.9497 6.55292 13.8297 5.85852C13.0009 5.34332 11.9817 4.97372 10.7721 4.74972C9.56248 4.50332 8.10648 4.38012 6.40408 4.38012C6.40408 4.91772 6.43768 5.58972 6.50488 6.39612C6.50488 6.66492 6.52728 7.13532 6.57208 7.80732C6.70648 10.4057 6.77368 12.5001 6.77368 14.0905C6.77368 16.3977 6.65048 18.2457 6.40408 19.6345Z"/>
<path d="M25.3582 1.18812C26.1422 1.25532 26.8254 1.46812 27.4078 1.82652C27.9902 2.16252 28.2814 2.67772 28.2814 3.37212C28.2814 3.88732 28.035 4.30172 27.5422 4.61532C27.0718 4.90652 26.5005 5.05212 25.8286 5.05212C25.1789 5.05212 24.731 4.88412 24.4846 4.54812C24.2381 4.21212 24.115 3.86492 24.115 3.50652C24.115 2.83452 24.1822 2.27452 24.3166 1.82652C24.4734 1.37852 24.8206 1.16572 25.3582 1.18812ZM28.0462 17.0473C28.0462 17.9209 28.0686 18.7497 28.1134 19.5337C28.1806 20.2953 28.259 21.0681 28.3486 21.8521C28.3262 22.0761 28.1582 22.3113 27.8446 22.5577C27.531 22.7817 27.2509 22.8937 27.0046 22.8937C26.579 22.8937 26.1422 22.8153 25.6942 22.6585C25.2686 22.4793 25.011 22.2665 24.9214 22.0201C24.787 21.3033 24.7198 20.6649 24.7198 20.1049C24.7198 18.2681 24.6637 16.2073 24.5518 13.9225C24.4622 11.9065 24.4174 10.4953 24.4174 9.68892C24.4174 9.28572 24.6189 8.93852 25.0222 8.64732C25.4254 8.35612 25.851 8.21052 26.299 8.21052C26.9486 8.21052 27.3966 8.35612 27.643 8.64732C27.9118 8.93852 28.0462 9.39772 28.0462 10.0249V17.0473Z"/>
<path d="M40.0366 14.1241C40.1038 13.9449 40.339 13.2953 40.7422 12.1753C41.1678 11.0553 41.5598 10.2041 41.9182 9.62172C42.5006 8.70332 43.0158 8.24412 43.4638 8.24412C44.091 8.24412 44.5726 8.36732 44.9086 8.61372C45.2446 8.83772 45.4126 9.16252 45.4126 9.58812C45.4126 9.78972 45.323 10.0697 45.1438 10.4281C44.987 10.7865 44.8974 10.9993 44.875 11.0665C43.979 13.0377 43.1726 15.1545 42.4558 17.4169L41.7502 20.0377C41.4814 20.8889 41.0222 21.5833 40.3726 22.1209C39.723 22.6361 38.9614 22.8937 38.0878 22.8937C37.3038 22.8937 36.5758 22.5353 35.9038 21.8185C35.5006 21.1913 35.075 20.3961 34.627 19.4329C34.2014 18.4697 33.8318 17.5289 33.5182 16.6105L32.3422 13.0825C32.0958 12.3881 31.8942 11.7945 31.7374 11.3017C31.603 10.8089 31.5358 10.3609 31.5358 9.95772C31.5134 9.48732 31.6478 9.10652 31.939 8.81532C32.2302 8.52412 32.6334 8.37852 33.1486 8.37852C33.731 8.37852 34.1454 8.50172 34.3918 8.74812C34.6382 8.97212 34.8622 9.33052 35.0638 9.82332C35.1534 10.3385 35.3998 11.3913 35.803 12.9817L36.0382 13.9225C36.2398 14.6841 36.4974 15.4569 36.811 16.2409C37.1246 17.0249 37.4382 17.7753 37.7518 18.4921C37.707 18.3801 37.8638 18.7497 38.2222 19.6009C38.4462 18.9513 38.7038 18.1561 38.995 17.2153L40.0366 14.1241Z"/>
<path d="M49.5082 1.18812C50.2922 1.25532 50.9754 1.46812 51.5578 1.82652C52.1402 2.16252 52.4314 2.67772 52.4314 3.37212C52.4314 3.88732 52.185 4.30172 51.6922 4.61532C51.2218 4.90652 50.6506 5.05212 49.9786 5.05212C49.329 5.05212 48.881 4.88412 48.6346 4.54812C48.3882 4.21212 48.265 3.86492 48.265 3.50652C48.265 2.83452 48.3322 2.27452 48.4666 1.82652C48.6234 1.37852 48.9706 1.16572 49.5082 1.18812ZM52.1962 17.0473C52.1962 17.9209 52.2186 18.7497 52.2634 19.5337C52.3306 20.2953 52.409 21.0681 52.4986 21.8521C52.4986 22.1209 52.3418 22.3673 52.0282 22.5913C51.7146 22.7929 51.4234 22.8937 51.1546 22.8937C50.729 22.8937 50.2922 22.8153 49.8442 22.6585C49.4186 22.4793 49.161 22.2665 49.0714 22.0201C48.937 21.3033 48.8698 20.6649 48.8698 20.1049C48.8698 18.2681 48.8138 16.2073 48.7018 13.9225C48.6122 11.9065 48.5674 10.4953 48.5674 9.68892C48.5674 9.28572 48.769 8.93852 49.1722 8.64732C49.5754 8.35612 50.001 8.21052 50.449 8.21052C51.0986 8.21052 51.5466 8.35612 51.793 8.64732C52.0618 8.93852 52.1962 9.39772 52.1962 10.0249V17.0473Z"/>
</mask>
<path d="M6.84088 1.45692C9.88728 1.45692 12.2953 1.88252 14.0649 2.73372C15.8569 3.56252 17.2121 4.49212 18.1305 5.52252C18.8697 6.37372 19.4745 7.35932 19.9449 8.47932C20.4153 9.57692 20.6505 10.8985 20.6505 12.4441C20.6505 13.5865 20.3929 14.7849 19.8777 16.0393C19.3625 17.2713 18.6905 18.2681 17.8617 19.0297C16.9881 19.8585 16.1593 20.5305 15.3753 21.0457C14.6137 21.5609 13.5721 21.9865 12.2505 22.3225C10.9513 22.6361 9.29368 22.7929 7.27768 22.7929C5.75448 22.7929 4.37688 22.6249 3.14488 22.2889C1.91288 21.9305 1.29688 21.3369 1.29688 20.5081C1.29688 20.1721 1.44248 19.9145 1.73368 19.7353C2.04728 19.5337 2.38328 19.4329 2.74168 19.4329C2.94328 19.4329 3.07768 19.4441 3.14488 19.4665C3.30168 17.9881 3.38008 16.4201 3.38008 14.7625C3.38008 12.9033 3.33528 11.3689 3.24568 10.1593C3.15608 8.92732 3.03288 7.70652 2.87608 6.49692C2.85368 6.34012 2.79768 5.90332 2.70808 5.18652C2.64088 4.46972 2.60728 3.74172 2.60728 3.00252C2.60728 2.53212 2.84248 2.14012 3.31288 1.82652C3.78328 1.49052 4.26488 1.32252 4.75768 1.32252C5.04888 1.32252 5.44088 1.34492 5.93368 1.38972C6.33688 1.43452 6.63928 1.45692 6.84088 1.45692ZM6.40408 19.6345C6.94168 19.7241 7.64728 19.7689 8.52088 19.7689C9.99928 19.7689 11.3993 19.4665 12.7209 18.8617C14.0425 18.2345 15.1065 17.3721 15.9129 16.2745C16.7193 15.1545 17.1225 13.8665 17.1225 12.4105C17.1225 10.8873 16.8537 9.58812 16.3161 8.51292C15.7785 7.43772 14.9497 6.55292 13.8297 5.85852C13.0009 5.34332 11.9817 4.97372 10.7721 4.74972C9.56248 4.50332 8.10648 4.38012 6.40408 4.38012C6.40408 4.91772 6.43768 5.58972 6.50488 6.39612C6.50488 6.66492 6.52728 7.13532 6.57208 7.80732C6.70648 10.4057 6.77368 12.5001 6.77368 14.0905C6.77368 16.3977 6.65048 18.2457 6.40408 19.6345Z" fill="url(#paint0_linear_967_2436)"/>
<path d="M25.3582 1.18812C26.1422 1.25532 26.8254 1.46812 27.4078 1.82652C27.9902 2.16252 28.2814 2.67772 28.2814 3.37212C28.2814 3.88732 28.035 4.30172 27.5422 4.61532C27.0718 4.90652 26.5005 5.05212 25.8286 5.05212C25.1789 5.05212 24.731 4.88412 24.4846 4.54812C24.2381 4.21212 24.115 3.86492 24.115 3.50652C24.115 2.83452 24.1822 2.27452 24.3166 1.82652C24.4734 1.37852 24.8206 1.16572 25.3582 1.18812ZM28.0462 17.0473C28.0462 17.9209 28.0686 18.7497 28.1134 19.5337C28.1806 20.2953 28.259 21.0681 28.3486 21.8521C28.3262 22.0761 28.1582 22.3113 27.8446 22.5577C27.531 22.7817 27.2509 22.8937 27.0046 22.8937C26.579 22.8937 26.1422 22.8153 25.6942 22.6585C25.2686 22.4793 25.011 22.2665 24.9214 22.0201C24.787 21.3033 24.7198 20.6649 24.7198 20.1049C24.7198 18.2681 24.6637 16.2073 24.5518 13.9225C24.4622 11.9065 24.4174 10.4953 24.4174 9.68892C24.4174 9.28572 24.6189 8.93852 25.0222 8.64732C25.4254 8.35612 25.851 8.21052 26.299 8.21052C26.9486 8.21052 27.3966 8.35612 27.643 8.64732C27.9118 8.93852 28.0462 9.39772 28.0462 10.0249V17.0473Z" fill="url(#paint1_linear_967_2436)"/>
<path d="M40.0366 14.1241C40.1038 13.9449 40.339 13.2953 40.7422 12.1753C41.1678 11.0553 41.5598 10.2041 41.9182 9.62172C42.5006 8.70332 43.0158 8.24412 43.4638 8.24412C44.091 8.24412 44.5726 8.36732 44.9086 8.61372C45.2446 8.83772 45.4126 9.16252 45.4126 9.58812C45.4126 9.78972 45.323 10.0697 45.1438 10.4281C44.987 10.7865 44.8974 10.9993 44.875 11.0665C43.979 13.0377 43.1726 15.1545 42.4558 17.4169L41.7502 20.0377C41.4814 20.8889 41.0222 21.5833 40.3726 22.1209C39.723 22.6361 38.9614 22.8937 38.0878 22.8937C37.3038 22.8937 36.5758 22.5353 35.9038 21.8185C35.5006 21.1913 35.075 20.3961 34.627 19.4329C34.2014 18.4697 33.8318 17.5289 33.5182 16.6105L32.3422 13.0825C32.0958 12.3881 31.8942 11.7945 31.7374 11.3017C31.603 10.8089 31.5358 10.3609 31.5358 9.95772C31.5134 9.48732 31.6478 9.10652 31.939 8.81532C32.2302 8.52412 32.6334 8.37852 33.1486 8.37852C33.731 8.37852 34.1454 8.50172 34.3918 8.74812C34.6382 8.97212 34.8622 9.33052 35.0638 9.82332C35.1534 10.3385 35.3998 11.3913 35.803 12.9817L36.0382 13.9225C36.2398 14.6841 36.4974 15.4569 36.811 16.2409C37.1246 17.0249 37.4382 17.7753 37.7518 18.4921C37.707 18.3801 37.8638 18.7497 38.2222 19.6009C38.4462 18.9513 38.7038 18.1561 38.995 17.2153L40.0366 14.1241Z" fill="url(#paint2_linear_967_2436)"/>
<path d="M49.5082 1.18812C50.2922 1.25532 50.9754 1.46812 51.5578 1.82652C52.1402 2.16252 52.4314 2.67772 52.4314 3.37212C52.4314 3.88732 52.185 4.30172 51.6922 4.61532C51.2218 4.90652 50.6506 5.05212 49.9786 5.05212C49.329 5.05212 48.881 4.88412 48.6346 4.54812C48.3882 4.21212 48.265 3.86492 48.265 3.50652C48.265 2.83452 48.3322 2.27452 48.4666 1.82652C48.6234 1.37852 48.9706 1.16572 49.5082 1.18812ZM52.1962 17.0473C52.1962 17.9209 52.2186 18.7497 52.2634 19.5337C52.3306 20.2953 52.409 21.0681 52.4986 21.8521C52.4986 22.1209 52.3418 22.3673 52.0282 22.5913C51.7146 22.7929 51.4234 22.8937 51.1546 22.8937C50.729 22.8937 50.2922 22.8153 49.8442 22.6585C49.4186 22.4793 49.161 22.2665 49.0714 22.0201C48.937 21.3033 48.8698 20.6649 48.8698 20.1049C48.8698 18.2681 48.8138 16.2073 48.7018 13.9225C48.6122 11.9065 48.5674 10.4953 48.5674 9.68892C48.5674 9.28572 48.769 8.93852 49.1722 8.64732C49.5754 8.35612 50.001 8.21052 50.449 8.21052C51.0986 8.21052 51.5466 8.35612 51.793 8.64732C52.0618 8.93852 52.1962 9.39772 52.1962 10.0249V17.0473Z" fill="url(#paint3_linear_967_2436)"/>
<path d="M6.84088 1.45692C9.88728 1.45692 12.2953 1.88252 14.0649 2.73372C15.8569 3.56252 17.2121 4.49212 18.1305 5.52252C18.8697 6.37372 19.4745 7.35932 19.9449 8.47932C20.4153 9.57692 20.6505 10.8985 20.6505 12.4441C20.6505 13.5865 20.3929 14.7849 19.8777 16.0393C19.3625 17.2713 18.6905 18.2681 17.8617 19.0297C16.9881 19.8585 16.1593 20.5305 15.3753 21.0457C14.6137 21.5609 13.5721 21.9865 12.2505 22.3225C10.9513 22.6361 9.29368 22.7929 7.27768 22.7929C5.75448 22.7929 4.37688 22.6249 3.14488 22.2889C1.91288 21.9305 1.29688 21.3369 1.29688 20.5081C1.29688 20.1721 1.44248 19.9145 1.73368 19.7353C2.04728 19.5337 2.38328 19.4329 2.74168 19.4329C2.94328 19.4329 3.07768 19.4441 3.14488 19.4665C3.30168 17.9881 3.38008 16.4201 3.38008 14.7625C3.38008 12.9033 3.33528 11.3689 3.24568 10.1593C3.15608 8.92732 3.03288 7.70652 2.87608 6.49692C2.85368 6.34012 2.79768 5.90332 2.70808 5.18652C2.64088 4.46972 2.60728 3.74172 2.60728 3.00252C2.60728 2.53212 2.84248 2.14012 3.31288 1.82652C3.78328 1.49052 4.26488 1.32252 4.75768 1.32252C5.04888 1.32252 5.44088 1.34492 5.93368 1.38972C6.33688 1.43452 6.63928 1.45692 6.84088 1.45692ZM6.40408 19.6345C6.94168 19.7241 7.64728 19.7689 8.52088 19.7689C9.99928 19.7689 11.3993 19.4665 12.7209 18.8617C14.0425 18.2345 15.1065 17.3721 15.9129 16.2745C16.7193 15.1545 17.1225 13.8665 17.1225 12.4105C17.1225 10.8873 16.8537 9.58812 16.3161 8.51292C15.7785 7.43772 14.9497 6.55292 13.8297 5.85852C13.0009 5.34332 11.9817 4.97372 10.7721 4.74972C9.56248 4.50332 8.10648 4.38012 6.40408 4.38012C6.40408 4.91772 6.43768 5.58972 6.50488 6.39612C6.50488 6.66492 6.52728 7.13532 6.57208 7.80732C6.70648 10.4057 6.77368 12.5001 6.77368 14.0905C6.77368 16.3977 6.65048 18.2457 6.40408 19.6345Z" stroke="url(#paint4_linear_967_2436)" stroke-width="1.2" mask="url(#path-1-outside-1_967_2436)"/>
<path d="M25.3582 1.18812C26.1422 1.25532 26.8254 1.46812 27.4078 1.82652C27.9902 2.16252 28.2814 2.67772 28.2814 3.37212C28.2814 3.88732 28.035 4.30172 27.5422 4.61532C27.0718 4.90652 26.5005 5.05212 25.8286 5.05212C25.1789 5.05212 24.731 4.88412 24.4846 4.54812C24.2381 4.21212 24.115 3.86492 24.115 3.50652C24.115 2.83452 24.1822 2.27452 24.3166 1.82652C24.4734 1.37852 24.8206 1.16572 25.3582 1.18812ZM28.0462 17.0473C28.0462 17.9209 28.0686 18.7497 28.1134 19.5337C28.1806 20.2953 28.259 21.0681 28.3486 21.8521C28.3262 22.0761 28.1582 22.3113 27.8446 22.5577C27.531 22.7817 27.2509 22.8937 27.0046 22.8937C26.579 22.8937 26.1422 22.8153 25.6942 22.6585C25.2686 22.4793 25.011 22.2665 24.9214 22.0201C24.787 21.3033 24.7198 20.6649 24.7198 20.1049C24.7198 18.2681 24.6637 16.2073 24.5518 13.9225C24.4622 11.9065 24.4174 10.4953 24.4174 9.68892C24.4174 9.28572 24.6189 8.93852 25.0222 8.64732C25.4254 8.35612 25.851 8.21052 26.299 8.21052C26.9486 8.21052 27.3966 8.35612 27.643 8.64732C27.9118 8.93852 28.0462 9.39772 28.0462 10.0249V17.0473Z" stroke="url(#paint5_linear_967_2436)" stroke-width="1.2" mask="url(#path-1-outside-1_967_2436)"/>
<path d="M40.0366 14.1241C40.1038 13.9449 40.339 13.2953 40.7422 12.1753C41.1678 11.0553 41.5598 10.2041 41.9182 9.62172C42.5006 8.70332 43.0158 8.24412 43.4638 8.24412C44.091 8.24412 44.5726 8.36732 44.9086 8.61372C45.2446 8.83772 45.4126 9.16252 45.4126 9.58812C45.4126 9.78972 45.323 10.0697 45.1438 10.4281C44.987 10.7865 44.8974 10.9993 44.875 11.0665C43.979 13.0377 43.1726 15.1545 42.4558 17.4169L41.7502 20.0377C41.4814 20.8889 41.0222 21.5833 40.3726 22.1209C39.723 22.6361 38.9614 22.8937 38.0878 22.8937C37.3038 22.8937 36.5758 22.5353 35.9038 21.8185C35.5006 21.1913 35.075 20.3961 34.627 19.4329C34.2014 18.4697 33.8318 17.5289 33.5182 16.6105L32.3422 13.0825C32.0958 12.3881 31.8942 11.7945 31.7374 11.3017C31.603 10.8089 31.5358 10.3609 31.5358 9.95772C31.5134 9.48732 31.6478 9.10652 31.939 8.81532C32.2302 8.52412 32.6334 8.37852 33.1486 8.37852C33.731 8.37852 34.1454 8.50172 34.3918 8.74812C34.6382 8.97212 34.8622 9.33052 35.0638 9.82332C35.1534 10.3385 35.3998 11.3913 35.803 12.9817L36.0382 13.9225C36.2398 14.6841 36.4974 15.4569 36.811 16.2409C37.1246 17.0249 37.4382 17.7753 37.7518 18.4921C37.707 18.3801 37.8638 18.7497 38.2222 19.6009C38.4462 18.9513 38.7038 18.1561 38.995 17.2153L40.0366 14.1241Z" stroke="url(#paint6_linear_967_2436)" stroke-width="1.2" mask="url(#path-1-outside-1_967_2436)"/>
<path d="M49.5082 1.18812C50.2922 1.25532 50.9754 1.46812 51.5578 1.82652C52.1402 2.16252 52.4314 2.67772 52.4314 3.37212C52.4314 3.88732 52.185 4.30172 51.6922 4.61532C51.2218 4.90652 50.6506 5.05212 49.9786 5.05212C49.329 5.05212 48.881 4.88412 48.6346 4.54812C48.3882 4.21212 48.265 3.86492 48.265 3.50652C48.265 2.83452 48.3322 2.27452 48.4666 1.82652C48.6234 1.37852 48.9706 1.16572 49.5082 1.18812ZM52.1962 17.0473C52.1962 17.9209 52.2186 18.7497 52.2634 19.5337C52.3306 20.2953 52.409 21.0681 52.4986 21.8521C52.4986 22.1209 52.3418 22.3673 52.0282 22.5913C51.7146 22.7929 51.4234 22.8937 51.1546 22.8937C50.729 22.8937 50.2922 22.8153 49.8442 22.6585C49.4186 22.4793 49.161 22.2665 49.0714 22.0201C48.937 21.3033 48.8698 20.6649 48.8698 20.1049C48.8698 18.2681 48.8138 16.2073 48.7018 13.9225C48.6122 11.9065 48.5674 10.4953 48.5674 9.68892C48.5674 9.28572 48.769 8.93852 49.1722 8.64732C49.5754 8.35612 50.001 8.21052 50.449 8.21052C51.0986 8.21052 51.5466 8.35612 51.793 8.64732C52.0618 8.93852 52.1962 9.39772 52.1962 10.0249V17.0473Z" stroke="url(#paint7_linear_967_2436)" stroke-width="1.2" mask="url(#path-1-outside-1_967_2436)"/>
<defs>
<linearGradient id="paint0_linear_967_2436" x1="1.29688" y1="1.18652" x2="16.8984" y2="37.9866" gradientUnits="userSpaceOnUse">
<stop stop-color="#3C8CE7"/>
<stop offset="1" stop-color="#00FFC2"/>
</linearGradient>
<linearGradient id="paint1_linear_967_2436" x1="1.29688" y1="1.18652" x2="16.8984" y2="37.9866" gradientUnits="userSpaceOnUse">
<stop stop-color="#3C8CE7"/>
<stop offset="1" stop-color="#00FFC2"/>
</linearGradient>
<linearGradient id="paint2_linear_967_2436" x1="1.29688" y1="1.18652" x2="16.8984" y2="37.9866" gradientUnits="userSpaceOnUse">
<stop stop-color="#3C8CE7"/>
<stop offset="1" stop-color="#00FFC2"/>
</linearGradient>
<linearGradient id="paint3_linear_967_2436" x1="1.29688" y1="1.18652" x2="16.8984" y2="37.9866" gradientUnits="userSpaceOnUse">
<stop stop-color="#3C8CE7"/>
<stop offset="1" stop-color="#00FFC2"/>
</linearGradient>
<linearGradient id="paint4_linear_967_2436" x1="1.29688" y1="1.18652" x2="16.8984" y2="37.9866" gradientUnits="userSpaceOnUse">
<stop stop-color="#3C8CE7"/>
<stop offset="1" stop-color="#00FFC2"/>
</linearGradient>
<linearGradient id="paint5_linear_967_2436" x1="1.29688" y1="1.18652" x2="16.8984" y2="37.9866" gradientUnits="userSpaceOnUse">
<stop stop-color="#3C8CE7"/>
<stop offset="1" stop-color="#00FFC2"/>
</linearGradient>
<linearGradient id="paint6_linear_967_2436" x1="1.29688" y1="1.18652" x2="16.8984" y2="37.9866" gradientUnits="userSpaceOnUse">
<stop stop-color="#3C8CE7"/>
<stop offset="1" stop-color="#00FFC2"/>
</linearGradient>
<linearGradient id="paint7_linear_967_2436" x1="1.29688" y1="1.18652" x2="16.8984" y2="37.9866" gradientUnits="userSpaceOnUse">
<stop stop-color="#3C8CE7"/>
<stop offset="1" stop-color="#00FFC2"/>
</linearGradient>
</defs>
</svg>
