<svg width="80" height="80" viewBox="0 0 80 80" fill="none" xmlns="http://www.w3.org/2000/svg">
<g clip-path="url(#clip0_967_2681)">
<path d="M79.9766 0H0.0234375C0.0104933 0 0 0.0104933 0 0.0234375V79.9766C0 79.9895 0.0104933 80 0.0234375 80H79.9766C79.9895 80 80 79.9895 80 79.9766V0.0234375C80 0.0104933 79.9895 0 79.9766 0Z" fill="#1877F2"/>
<path d="M55.5625 51.5625L57.3438 40H46.25V32.5C46.25 29.3438 47.7969 26.25 52.7656 26.25H57.8125V16.4062C57.8125 16.4062 53.2344 15.625 48.8594 15.625C39.7188 15.625 33.75 21.1563 33.75 31.1875V40H23.5938V51.5625H33.75V80H46.25V51.5625H55.5625Z" fill="white"/>
</g>
<defs>
<clipPath id="clip0_967_2681">
<rect width="80" height="80" rx="8" fill="white"/>
</clipPath>
</defs>
</svg>
