<svg width="164" height="164" viewBox="0 0 164 164" fill="none" xmlns="http://www.w3.org/2000/svg">
<path d="M163.328 81.8901C163.328 126.992 126.766 163.554 81.664 163.554C36.5622 163.554 0 126.992 0 81.8901C0 36.7884 36.5622 0.22618 81.664 0.22618C176.939 0.21582 163.328 -8.41018 163.328 81.8901Z" fill="url(#paint0_linear_922_1945)"/>
<path d="M122.65 43.5652C119.716 43.5652 117.337 45.9439 117.337 48.8782C117.337 51.8125 119.716 54.1911 122.65 54.1911C123.264 54.1911 123.555 54.2796 123.645 54.3136C123.698 54.399 123.837 54.6634 123.958 55.2395C124.087 55.8509 124.169 56.6769 124.169 57.759L124.169 105.576C124.169 106.658 124.087 107.483 123.958 108.095C123.837 108.67 123.699 108.934 123.645 109.02C123.555 109.054 123.264 109.142 122.65 109.142C119.716 109.142 117.337 111.521 117.337 114.455C117.337 117.389 119.716 119.768 122.65 119.768C126.658 119.768 130.217 118.293 132.457 114.958C134.403 112.061 134.794 108.528 134.794 105.576L134.794 57.759C134.794 54.8065 134.403 51.2733 132.457 48.376C130.218 45.0413 126.659 43.5652 122.65 43.5652Z" fill="white"/>
<path d="M81.6648 52.975C81.6648 50.3341 83.8056 48.1933 86.4465 48.1933C89.0873 48.1933 91.2281 50.3341 91.2281 52.975L91.2281 72.1016C91.2281 74.7424 89.0873 76.8833 86.4465 76.8833C83.8056 76.8833 81.6648 74.7424 81.6648 72.1016L81.6648 52.975Z" fill="white"/>
<path fill-rule="evenodd" clip-rule="evenodd" d="M81.424 28.5369C77.1599 28.5368 73.6056 28.5368 70.7139 28.7989C67.6948 29.0725 64.8803 29.665 62.2725 31.1706C59.2841 32.8959 56.8026 35.3775 55.0772 38.3659C53.5716 40.9737 52.9791 43.7881 52.7055 46.8072C52.4434 49.699 52.4434 53.2533 52.4435 57.5173L52.4435 105.816C52.4434 110.08 52.4434 113.634 52.7055 116.526C52.9791 119.545 53.5716 122.359 55.0772 124.967C56.8025 127.955 59.2841 130.437 62.2725 132.162C64.8803 133.668 67.6948 134.26 70.7139 134.534C73.6056 134.796 77.1599 134.796 81.4239 134.796L81.9057 134.796C86.1696 134.796 89.7241 134.796 92.6158 134.534C95.6348 134.26 98.4493 133.668 101.057 132.162C104.045 130.437 106.527 127.955 108.252 124.967C109.758 122.359 110.351 119.545 110.624 116.526C110.886 113.634 110.886 110.08 110.886 105.816L110.886 57.5173C110.886 53.2533 110.886 49.699 110.624 46.8072C110.351 43.7881 109.758 40.9737 108.252 38.3659C106.527 35.3775 104.045 32.896 101.057 31.1706C98.4493 29.665 95.6349 29.0725 92.6158 28.7989C89.724 28.5368 86.1697 28.5368 81.9056 28.5369L81.424 28.5369ZM67.5855 40.3729C68.3064 39.9567 69.3909 39.5882 71.673 39.3814C74.0281 39.1679 77.098 39.1629 81.6648 39.1629C86.2316 39.1629 89.3015 39.1679 91.6566 39.3814C93.9387 39.5882 95.0232 39.9567 95.7441 40.3729C97.1172 41.1656 98.2574 42.3058 99.0501 43.6789C99.4664 44.3998 99.8348 45.4843 100.042 47.7664C100.255 50.1215 100.26 53.1914 100.26 57.7582L100.26 105.575C100.26 110.142 100.255 113.211 100.042 115.567C99.8348 117.849 99.4663 118.933 99.0501 119.654C98.2574 121.027 97.1172 122.167 95.7441 122.96C95.0232 123.376 93.9387 123.745 91.6566 123.952C89.3015 124.165 86.2316 124.17 81.6648 124.17C77.098 124.17 74.0281 124.165 71.673 123.952C69.3909 123.745 68.3064 123.376 67.5855 122.96C66.2124 122.167 65.0722 121.027 64.2795 119.654C63.8633 118.933 63.4948 117.849 63.288 115.567C63.0745 113.211 63.0695 110.142 63.0695 105.575L63.0695 57.7582C63.0695 53.1914 63.0745 50.1215 63.288 47.7664C63.4948 45.4843 63.8633 44.3998 64.2795 43.6789C65.0722 42.3058 66.2124 41.1656 67.5855 40.3729Z" fill="white"/>
<path d="M39.3714 55.2374C39.2425 55.8489 39.1612 56.6749 39.1612 57.7571L39.1611 105.574C39.1611 106.656 39.2425 107.482 39.3714 108.093C39.4926 108.668 39.6307 108.932 39.6844 109.018C39.7745 109.052 40.066 109.14 40.6788 109.14C43.6131 109.14 45.9918 111.519 45.9918 114.453C45.9918 117.388 43.6131 119.766 40.6788 119.766C36.6709 119.766 33.1118 118.291 30.8722 114.956C28.9265 112.059 28.5352 108.526 28.5352 105.574L28.5352 57.7571C28.5352 54.8049 28.9266 51.2718 30.872 48.3744C33.1111 45.0395 36.6701 43.5633 40.6788 43.5633C43.6131 43.5633 45.9918 45.942 45.9918 48.8762C45.9918 51.8105 43.6131 54.1892 40.6788 54.1892C40.066 54.1892 39.7747 54.2774 39.6848 54.3116C39.6311 54.397 39.4928 54.6616 39.3714 55.2374Z" fill="white"/>
<defs>
<linearGradient id="paint0_linear_922_1945" x1="0" y1="0" x2="163.553" y2="164" gradientUnits="userSpaceOnUse">
<stop stop-color="#3C8CE7"/>
<stop offset="1" stop-color="#00FFC2"/>
</linearGradient>
</defs>
</svg>
