<svg width="716" height="354" viewBox="0 0 716 354" fill="none" xmlns="http://www.w3.org/2000/svg">
<rect x="122.933" y="0.415039" width="456.599" height="313.912" rx="8.78075" fill="white"/>
<path d="M38.7739 260.064C40.2395 244.688 49.3014 229.32 63.7699 223.915C58.46 239.85 58.9578 257.15 65.175 272.753C67.5946 278.762 70.9114 285.193 68.9751 291.375C67.7704 295.221 64.6394 298.227 61.0984 300.152C57.5572 302.078 53.5942 303.06 49.6805 304.024L48.9239 304.688C42.267 290.75 37.3083 275.44 38.7739 260.064Z" fill="url(#paint0_linear_501_1417)"/>
<path d="M63.9245 224.201C55.689 233.979 50.744 246.104 49.7918 258.853C49.5381 261.594 49.718 264.357 50.3249 267.042C51.0006 269.639 52.3593 272.006 54.2597 273.9C55.9962 275.701 57.981 277.343 59.2493 279.535C59.8819 280.666 60.2682 281.919 60.3827 283.21C60.4973 284.502 60.3375 285.803 59.914 287.028C58.9381 290.109 56.9135 292.655 54.847 295.076C52.5527 297.765 50.1269 300.521 49.2194 304.023C49.1094 304.448 48.4573 304.252 48.5671 303.828C50.1461 297.734 55.9145 294.133 58.5562 288.609C59.7889 286.031 60.2523 283.067 58.9514 280.421C57.8138 278.107 55.7685 276.412 53.9945 274.604C52.1135 272.784 50.7068 270.531 49.8973 268.041C49.1556 265.396 48.8695 262.644 49.0513 259.903C49.362 253.725 50.6421 247.634 52.8448 241.853C55.3222 235.242 58.9122 229.104 63.4596 223.703C63.7412 223.369 64.2042 223.869 63.9245 224.201V224.201Z" fill="white"/>
<path d="M49.8569 254.73C47.7396 254.279 45.8513 253.091 44.5291 251.377C43.2069 249.664 42.537 247.535 42.6391 245.373C42.644 245.285 42.683 245.202 42.7478 245.142C42.8126 245.082 42.8981 245.05 42.9864 245.052C43.0747 245.054 43.1587 245.09 43.2209 245.152C43.2831 245.215 43.3186 245.299 43.3198 245.388C43.2211 247.401 43.8453 249.383 45.0798 250.977C46.3142 252.57 48.0776 253.67 50.0517 254.077C50.4806 254.166 50.2833 254.818 49.8569 254.73H49.8569Z" fill="white"/>
<path d="M53.2569 273.103C56.9895 270.726 59.6891 267.03 60.8176 262.751C60.929 262.327 61.5812 262.523 61.4699 262.946C60.2872 267.396 57.47 271.237 53.5804 273.702C53.2095 273.936 52.888 273.336 53.2569 273.103H53.2569Z" fill="white"/>
<path d="M106.166 250.002C105.941 250.158 105.716 250.314 105.49 250.476C102.47 252.586 102.556 254.943 99.9173 257.514C99.7102 257.709 99.5032 257.911 99.3021 258.112C93.0127 264.376 87.941 271.754 84.3448 279.871C82.9168 283.101 81.7367 286.436 80.8147 289.846C79.5415 294.556 78.5358 299.763 75.8601 303.662C75.5855 304.072 75.2858 304.465 74.9627 304.837L49.7915 305.56C49.7334 305.533 49.6753 305.511 49.617 305.484L48.6133 305.559C48.6486 305.38 48.689 305.195 48.7243 305.016C48.7443 304.912 48.7699 304.807 48.7899 304.703C48.8051 304.634 48.8205 304.565 48.8302 304.501C48.8351 304.478 48.8404 304.455 48.8455 304.437C48.8552 304.374 48.8709 304.316 48.8808 304.258C49.1039 303.223 49.3347 302.188 49.5732 301.152C49.573 301.146 49.573 301.146 49.5785 301.14C51.3202 293.231 53.994 285.557 57.5438 278.277C57.6526 278.062 57.7611 277.84 57.8814 277.624C59.5294 274.4 61.4382 271.315 63.5886 268.402C64.7713 266.81 66.0337 265.28 67.3712 263.816C70.8342 260.04 74.8695 256.833 79.3292 254.311C88.2204 249.285 95.693 247.159 105.425 249.794C105.674 249.861 105.917 249.929 106.166 250.002Z" fill="url(#paint1_linear_501_1417)"/>
<path d="M106.118 250.323C93.7853 253.139 85.1993 259.912 76.8977 269.482C75.0449 271.518 73.5246 273.833 72.3927 276.342C71.3691 278.822 71.0282 281.531 71.4055 284.187C71.7075 286.67 72.304 289.176 71.997 291.69C71.8208 292.974 71.375 294.207 70.689 295.307C70.0029 296.407 69.0921 297.35 68.0162 298.073C65.3822 299.945 62.2326 300.759 59.125 301.448C55.6745 302.213 52.0784 302.953 49.2449 305.204C48.9016 305.476 48.4986 304.928 48.8414 304.656C53.7712 300.74 60.5453 301.338 65.9803 298.518C68.5164 297.202 70.6713 295.114 71.2258 292.218C71.7107 289.685 71.0977 287.101 70.7702 284.589C70.3641 282.003 70.5974 279.357 71.4497 276.882C72.4502 274.324 73.8788 271.954 75.6744 269.875C79.642 265.129 84.3312 261.036 89.5702 257.747C95.5233 253.964 99.1701 251.216 106.046 249.646C106.472 249.549 106.541 250.227 106.118 250.323V250.323Z" fill="white"/>
<path d="M80.4336 266.228C79.014 264.594 78.2216 262.509 78.1978 260.344C78.174 258.18 78.9204 256.077 80.3036 254.412C80.5847 254.076 81.1199 254.497 80.8385 254.834C79.5476 256.382 78.8525 258.34 78.8788 260.356C78.905 262.371 79.651 264.311 80.9818 265.825C81.2706 266.154 80.7207 266.556 80.4336 266.228V266.228Z" fill="white"/>
<path d="M72.089 282.947C76.5 283.297 80.8809 281.971 84.3579 279.235C84.7022 278.963 85.1053 279.512 84.7614 279.783C81.1378 282.624 76.5761 283.994 71.9866 283.62C71.5492 283.584 71.6539 282.912 72.089 282.947H72.089Z" fill="white"/>
<path d="M62.057 286.849C61.5226 286.869 60.9952 286.724 60.5462 286.433C60.0972 286.143 59.7482 285.722 59.5467 285.226C59.3451 284.731 59.3006 284.186 59.4193 283.664C59.538 283.143 59.8141 282.671 60.2101 282.312C60.2784 282.051 60.3274 281.864 60.3956 281.603C59.8968 280.3 59.0202 279.175 57.878 278.373C56.7359 277.571 55.3803 277.129 53.985 277.102C52.5897 277.076 51.2183 277.466 50.0466 278.225C48.8749 278.983 47.9563 280.073 47.4085 281.357C44.249 288.561 40.1779 296.012 42.0913 303.998C29.2172 276.026 34.0154 241.43 53.6601 217.801C59.0556 214.895 63.456 209.683 64.6466 203.595C61.9817 204.469 58.6904 202.277 60.7142 199.498C61.5902 198.437 62.4744 197.384 63.3502 196.323C53.362 185.481 41.1784 202.256 52.1471 216.866C48.4704 221.386 45.2763 226.279 42.617 231.464C43.2724 225.938 42.6064 220.335 40.6738 215.116C38.7112 210.251 34.9848 206.134 31.709 201.913C27.7262 196.77 19.4064 199.046 18.8022 205.518C22.5111 206.777 22.9433 212.156 18.6804 212.851C19.6804 224.912 27.4478 236.062 38.2408 241.45C34.1295 252.647 32.452 264.592 33.3201 276.489C31.5384 262.578 16.6577 259.065 6.28682 253.444C5.62746 253.012 4.85669 252.781 4.06855 252.78C3.2804 252.779 2.50894 253.007 1.84828 253.437C1.18762 253.867 0.666316 254.48 0.347957 255.201C0.0295977 255.922 -0.0720548 256.72 0.0554037 257.497C1.48847 258.096 2.85853 258.836 4.14539 259.705C4.74832 260.119 5.20852 260.709 5.46292 261.395C5.71731 262.08 5.75344 262.828 5.56635 263.535C5.37926 264.241 4.97812 264.873 4.4179 265.343C3.85768 265.813 3.16582 266.098 2.43714 266.16C7.56738 279.213 21.0681 288.075 35.02 288.158C36.3052 293.997 38.1938 299.687 40.6553 305.135L61.3621 305.332C61.4385 305.103 61.5076 304.866 61.5766 304.637C59.6588 304.739 57.7357 304.606 55.8502 304.241C60.9783 298.285 64.9291 295.259 62.0576 286.85L62.057 286.849Z" fill="url(#paint2_linear_501_1417)"/>
<path d="M631.953 309.856C614.508 309.703 597.09 308.425 579.809 306.03C579.202 305.946 578.595 305.855 577.988 305.771L578.901 142.393C579.504 141.913 580.114 141.441 580.731 140.984C582.774 139.458 584.875 138.029 587.048 136.716C597.518 130.409 609.776 127.521 618.233 130.415L618.365 130.466C620.217 131.091 621.927 132.075 623.398 133.363C630.824 139.961 629.586 153.301 623.592 165.407C635.477 154.549 650.475 145.903 663.862 145.246C676.92 144.602 686.248 151.43 694.176 158.835C694.438 159.078 694.692 159.321 694.947 159.564C695.078 159.682 695.202 159.807 695.333 159.925C701.374 165.703 707.329 172.439 706.609 182.189C705.818 192.882 696.861 204.738 686.423 213.051C675.994 221.364 664.145 226.888 652.582 232.487C641.025 238.093 629.174 244.159 619.296 253.155C634.709 240.97 652.245 231.146 669.3 227.517C686.356 223.887 702.736 227.081 710.768 237.941C713.132 241.238 714.671 245.053 715.258 249.067C715.336 249.536 715.399 250.012 715.455 250.495C716.599 260.548 713.122 272.551 704.81 282.764C695.659 294.011 682.093 301.808 669.215 305.688C656.336 309.567 643.938 309.981 631.953 309.856Z" fill="url(#paint3_linear_501_1417)"/>
<path d="M578.562 202.964L578.58 199.84C579.2 198.848 579.813 197.852 580.419 196.85C580.81 196.231 581.187 195.603 581.571 194.976C587.9 184.613 593.97 174.186 599.783 163.694C605.6 153.211 611.15 142.676 616.431 132.087C616.553 131.807 616.77 131.578 617.043 131.44C617.317 131.303 617.63 131.265 617.928 131.335C617.967 131.346 618.004 131.364 618.037 131.387C618.315 131.535 618.43 131.865 618.193 132.346C617.542 133.645 616.891 134.951 616.225 136.25C610.853 146.867 605.213 157.438 599.305 167.964C593.4 178.483 587.234 188.942 580.807 199.34C580.674 199.559 580.534 199.778 580.401 199.997C579.788 200.988 579.175 201.973 578.562 202.964Z" fill="white"/>
<path d="M578.336 243.246L578.347 241.314C578.956 240.878 579.566 240.45 580.176 240.014C594.531 229.777 608.887 219.542 623.242 209.309C646.744 192.552 670.246 175.8 693.748 159.052C693.875 158.953 694.019 158.879 694.174 158.835C694.694 158.692 694.999 159.074 694.945 159.564C694.916 159.771 694.843 159.968 694.731 160.144C694.619 160.32 694.47 160.471 694.296 160.585C681.116 169.98 667.941 179.373 654.771 188.763C631.386 205.433 608.004 222.101 584.625 238.766C583.141 239.826 581.649 240.886 580.165 241.946C579.555 242.382 578.946 242.817 578.336 243.246Z" fill="white"/>
<path d="M589.556 286.283C586.301 286.184 583.097 285.969 579.923 285.687C579.316 285.633 578.709 285.578 578.102 285.524L578.113 283.497C578.72 283.559 579.327 283.621 579.934 283.675C584.52 284.103 589.157 284.407 593.92 284.449C607.127 284.503 620.305 283.215 633.251 280.607C647.191 277.835 660.863 273.854 674.112 268.71C688.086 263.312 701.605 256.803 714.54 249.245C714.751 249.103 715.005 249.04 715.258 249.067C715.835 249.15 716.007 249.919 715.455 250.494C715.347 250.608 715.223 250.706 715.087 250.785C713.48 251.72 711.867 252.638 710.25 253.539C697.243 260.817 683.677 267.047 669.68 272.169C656.388 277.048 642.695 280.759 628.758 283.26C615.828 285.603 602.692 286.616 589.556 286.283V286.283Z" fill="white"/>
<path d="M573.461 0.415039H129.301C127.61 0.416578 125.988 1.08933 124.791 2.28561C123.595 3.48189 122.922 5.10395 122.921 6.79572V307.771C122.922 309.462 123.595 311.084 124.791 312.281C125.988 313.477 127.61 314.15 129.301 314.151H573.461C574.384 314.151 575.295 313.951 576.133 313.565C576.97 313.178 577.714 312.614 578.313 311.912C578.363 311.857 578.41 311.799 578.452 311.737C578.833 311.271 579.141 310.75 579.366 310.193C579.687 309.426 579.852 308.602 579.849 307.771V6.79576C579.847 5.1028 579.173 3.4798 577.976 2.28337C576.778 1.08695 575.154 0.414953 573.461 0.415039V0.415039ZM578.027 307.771C578.028 308.661 577.766 309.531 577.273 310.273C576.836 310.926 576.242 311.459 575.547 311.824C574.902 312.158 574.187 312.331 573.461 312.329H129.301C128.093 312.328 126.934 311.847 126.08 310.993C125.225 310.138 124.744 308.979 124.743 307.771V6.79576C124.744 5.58717 125.225 4.4285 126.08 3.57389C126.934 2.71929 128.093 2.23853 129.301 2.23706H573.461C574.671 2.23691 575.831 2.71691 576.687 3.57165C577.544 4.42639 578.025 5.58599 578.027 6.79576V307.771Z" fill="#EEF0F8"/>
<path d="M578.934 25.9883H123.83V27.8123H578.934V25.9883Z" fill="#EEF0F8"/>
<path d="M139.334 19.5674C142.357 19.5674 144.807 17.1175 144.807 14.0952C144.807 11.073 142.357 8.62305 139.334 8.62305C136.312 8.62305 133.862 11.073 133.862 14.0952C133.862 17.1175 136.312 19.5674 139.334 19.5674Z" fill="#FF5823"/>
<path d="M155.067 19.5674C158.089 19.5674 160.539 17.1175 160.539 14.0952C160.539 11.073 158.089 8.62305 155.067 8.62305C152.045 8.62305 149.595 11.073 149.595 14.0952C149.595 17.1175 152.045 19.5674 155.067 19.5674Z" fill="url(#paint4_linear_501_1417)"/>
<path d="M170.799 19.5674C173.822 19.5674 176.272 17.1175 176.272 14.0952C176.272 11.073 173.822 8.62305 170.799 8.62305C167.777 8.62305 165.327 11.073 165.327 14.0952C165.327 17.1175 167.777 19.5674 170.799 19.5674Z" fill="url(#paint5_linear_501_1417)"/>
<path d="M465.605 68.2115H237.305C234.783 68.2115 232.363 67.2093 230.579 65.4254C228.795 63.6414 227.793 61.2219 227.793 58.699C227.793 56.1761 228.795 53.7566 230.579 51.9727C232.363 50.1887 234.783 49.1865 237.305 49.1865H465.605C468.128 49.1865 470.547 50.1887 472.331 51.9727C474.115 53.7566 475.118 56.1761 475.118 58.699C475.118 61.2219 474.115 63.6414 472.331 65.4254C470.547 67.2093 468.128 68.2115 465.605 68.2115ZM237.305 50.65C235.171 50.65 233.123 51.498 231.614 53.0075C230.104 54.517 229.256 56.5643 229.256 58.699C229.256 60.8337 230.104 62.8811 231.614 64.3905C233.123 65.9 235.171 66.748 237.305 66.748H465.605C467.74 66.748 469.787 65.9 471.297 64.3905C472.806 62.8811 473.654 60.8337 473.654 58.699C473.654 56.5643 472.806 54.517 471.297 53.0075C469.787 51.498 467.74 50.65 465.605 50.65H237.305Z" fill="#EEF0F8"/>
<path d="M239.211 126.383H218.723C217.17 126.383 215.681 125.767 214.584 124.669C213.486 123.571 212.869 122.082 212.869 120.53C212.869 118.977 213.486 117.488 214.584 116.39C215.681 115.293 217.17 114.676 218.723 114.676H239.211C240.764 114.676 242.253 115.293 243.351 116.39C244.448 117.488 245.065 118.977 245.065 120.53C245.065 122.082 244.448 123.571 243.351 124.669C242.253 125.767 240.764 126.383 239.211 126.383Z" fill="#D2E0FF"/>
<path d="M263.358 146.14H218.723C217.17 146.14 215.681 145.524 214.584 144.426C213.486 143.328 212.869 141.839 212.869 140.286C212.869 138.734 213.486 137.245 214.584 136.147C215.681 135.049 217.17 134.433 218.723 134.433H263.358C264.911 134.433 266.4 135.049 267.498 136.147C268.596 137.245 269.212 138.734 269.212 140.286C269.212 141.839 268.596 143.328 267.498 144.426C266.4 145.524 264.911 146.14 263.358 146.14Z" fill="#D2E0FF"/>
<path d="M242.871 212.728H222.382C220.83 212.728 219.341 212.111 218.243 211.014C217.145 209.916 216.528 208.427 216.528 206.874C216.528 205.322 217.145 203.833 218.243 202.735C219.341 201.637 220.83 201.021 222.382 201.021H242.871C244.423 201.021 245.912 201.637 247.01 202.735C248.108 203.833 248.724 205.322 248.724 206.874C248.724 208.427 248.108 209.916 247.01 211.014C245.912 212.111 244.423 212.728 242.871 212.728Z" fill="#D2E0FF"/>
<path d="M267.018 232.484H222.382C220.83 232.484 219.341 231.867 218.243 230.769C217.145 229.672 216.528 228.183 216.528 226.63C216.528 225.078 217.145 223.589 218.243 222.491C219.341 221.393 220.83 220.776 222.382 220.776H267.018C268.57 220.776 270.059 221.393 271.157 222.491C272.255 223.589 272.871 225.078 272.871 226.63C272.871 228.183 272.255 229.672 271.157 230.769C270.059 231.867 268.57 232.484 267.018 232.484Z" fill="#D2E0FF"/>
<path d="M377.508 210.533H357.02C355.467 210.533 353.978 209.916 352.881 208.818C351.783 207.721 351.166 206.232 351.166 204.679C351.166 203.126 351.783 201.638 352.881 200.54C353.978 199.442 355.467 198.825 357.02 198.825H377.508C379.061 198.825 380.55 199.442 381.648 200.54C382.745 201.638 383.362 203.126 383.362 204.679C383.362 206.232 382.745 207.721 381.648 208.818C380.55 209.916 379.061 210.533 377.508 210.533Z" fill="#D2E0FF"/>
<path d="M401.655 230.29H357.02C355.467 230.29 353.978 229.673 352.881 228.575C351.783 227.477 351.166 225.988 351.166 224.436C351.166 222.883 351.783 221.394 352.881 220.297C353.978 219.199 355.467 218.582 357.02 218.582H401.655C403.208 218.582 404.697 219.199 405.795 220.297C406.892 221.394 407.509 222.883 407.509 224.436C407.509 225.988 406.892 227.477 405.795 228.575C404.697 229.673 403.208 230.29 401.655 230.29Z" fill="#D2E0FF"/>
<path d="M375.313 130.043H354.825C353.272 130.043 351.783 129.426 350.685 128.328C349.587 127.23 348.971 125.741 348.971 124.189C348.971 122.636 349.587 121.147 350.685 120.05C351.783 118.952 353.272 118.335 354.825 118.335H375.313C376.865 118.335 378.354 118.952 379.452 120.05C380.55 121.147 381.167 122.636 381.167 124.189C381.167 125.741 380.55 127.23 379.452 128.328C378.354 129.426 376.865 130.043 375.313 130.043Z" fill="#D2E0FF"/>
<path d="M399.46 149.799H354.825C353.272 149.799 351.783 149.183 350.685 148.085C349.587 146.987 348.971 145.498 348.971 143.946C348.971 142.393 349.587 140.904 350.685 139.806C351.783 138.709 353.272 138.092 354.825 138.092H399.46C401.013 138.092 402.501 138.709 403.599 139.806C404.697 140.904 405.314 142.393 405.314 143.946C405.314 145.498 404.697 146.987 403.599 148.085C402.501 149.183 401.013 149.799 399.46 149.799Z" fill="#D2E0FF"/>
<path d="M512.147 125.652H491.659C490.106 125.652 488.617 125.035 487.519 123.937C486.421 122.84 485.805 121.351 485.805 119.798C485.805 118.246 486.421 116.757 487.519 115.659C488.617 114.561 490.106 113.944 491.659 113.944H512.147C513.699 113.944 515.188 114.561 516.286 115.659C517.384 116.757 518.001 118.246 518.001 119.798C518.001 121.351 517.384 122.84 516.286 123.937C515.188 125.035 513.699 125.652 512.147 125.652Z" fill="#D2E0FF"/>
<path d="M536.294 145.409H491.659C490.106 145.409 488.617 144.792 487.519 143.694C486.421 142.596 485.805 141.108 485.805 139.555C485.805 138.002 486.421 136.514 487.519 135.416C488.617 134.318 490.106 133.701 491.659 133.701H536.294C537.847 133.701 539.335 134.318 540.433 135.416C541.531 136.514 542.148 138.002 542.148 139.555C542.148 141.108 541.531 142.596 540.433 143.694C539.335 144.792 537.847 145.409 536.294 145.409Z" fill="#D2E0FF"/>
<path d="M182.574 152.36C194.698 152.36 204.526 142.532 204.526 130.408C204.526 118.284 194.698 108.456 182.574 108.456C170.45 108.456 160.622 118.284 160.622 130.408C160.622 142.532 170.45 152.36 182.574 152.36Z" fill="url(#paint6_linear_501_1417)"/>
<path d="M192.818 140.287H172.33C171.748 140.286 171.19 140.055 170.778 139.643C170.367 139.232 170.135 138.674 170.135 138.092V122.725C170.135 122.143 170.367 121.585 170.778 121.174C171.19 120.762 171.748 120.531 172.33 120.53H178.098C178.473 120.529 178.842 120.624 179.17 120.807C179.497 120.99 179.772 121.254 179.967 121.575L181.576 124.189H192.818C193.4 124.19 193.958 124.421 194.37 124.833C194.781 125.244 195.013 125.802 195.014 126.384V138.092C195.013 138.674 194.781 139.232 194.37 139.643C193.958 140.055 193.4 140.286 192.818 140.287V140.287ZM172.33 121.994C172.136 121.994 171.95 122.071 171.813 122.208C171.676 122.346 171.598 122.531 171.598 122.725V138.092C171.598 138.286 171.676 138.472 171.813 138.609C171.95 138.746 172.136 138.823 172.33 138.824H192.818C193.012 138.823 193.198 138.746 193.336 138.609C193.473 138.472 193.55 138.286 193.55 138.092V126.384C193.55 126.19 193.473 126.004 193.336 125.867C193.198 125.73 193.012 125.653 192.818 125.652H180.758L178.721 122.342C178.656 122.235 178.564 122.147 178.455 122.086C178.346 122.025 178.223 121.993 178.098 121.994H172.33Z" fill="white"/>
<path d="M317.213 156.019C329.336 156.019 339.165 146.191 339.165 134.067C339.165 121.943 329.336 112.115 317.213 112.115C305.089 112.115 295.261 121.943 295.261 134.067C295.261 146.191 305.089 156.019 317.213 156.019Z" fill="url(#paint7_linear_501_1417)"/>
<path d="M326.725 147.97H307.7C307.118 147.969 306.56 147.738 306.149 147.326C305.737 146.915 305.506 146.357 305.505 145.775V122.359C305.506 121.777 305.737 121.219 306.149 120.808C306.56 120.396 307.118 120.165 307.7 120.164H321.485C321.985 120.164 322.471 120.335 322.861 120.648L328.1 124.858C328.357 125.064 328.564 125.324 328.706 125.62C328.848 125.917 328.921 126.241 328.92 126.57V145.775C328.92 146.357 328.688 146.915 328.277 147.326C327.865 147.738 327.307 147.969 326.725 147.97V147.97ZM307.7 121.628C307.506 121.628 307.32 121.705 307.183 121.842C307.046 121.979 306.969 122.165 306.968 122.359V145.775C306.969 145.969 307.046 146.155 307.183 146.292C307.32 146.429 307.506 146.506 307.7 146.506H326.725C326.919 146.506 327.105 146.429 327.242 146.292C327.379 146.155 327.457 145.969 327.457 145.775V126.57C327.457 126.46 327.433 126.352 327.385 126.253C327.338 126.154 327.269 126.068 327.183 125.999L321.943 121.789C321.813 121.684 321.652 121.628 321.485 121.628H307.7Z" fill="white"/>
<path d="M323.066 130.408H311.359C311.165 130.408 310.979 130.331 310.841 130.193C310.704 130.056 310.627 129.87 310.627 129.676C310.627 129.482 310.704 129.296 310.841 129.159C310.979 129.021 311.165 128.944 311.359 128.944H323.066C323.26 128.944 323.447 129.021 323.584 129.159C323.721 129.296 323.798 129.482 323.798 129.676C323.798 129.87 323.721 130.056 323.584 130.193C323.447 130.331 323.26 130.408 323.066 130.408Z" fill="white"/>
<path d="M323.066 134.798H311.359C311.165 134.798 310.979 134.721 310.841 134.584C310.704 134.447 310.627 134.261 310.627 134.067C310.627 133.873 310.704 133.686 310.841 133.549C310.979 133.412 311.165 133.335 311.359 133.335H323.066C323.26 133.335 323.447 133.412 323.584 133.549C323.721 133.686 323.798 133.873 323.798 134.067C323.798 134.261 323.721 134.447 323.584 134.584C323.447 134.721 323.26 134.798 323.066 134.798Z" fill="white"/>
<path d="M323.066 139.189H311.359C311.165 139.189 310.979 139.112 310.841 138.975C310.704 138.837 310.627 138.651 310.627 138.457C310.627 138.263 310.704 138.077 310.841 137.94C310.979 137.803 311.165 137.726 311.359 137.726H323.066C323.26 137.726 323.447 137.803 323.584 137.94C323.721 138.077 323.798 138.263 323.798 138.457C323.798 138.651 323.721 138.837 323.584 138.975C323.447 139.112 323.26 139.189 323.066 139.189Z" fill="white"/>
<path d="M452.583 151.628C464.706 151.628 474.535 141.8 474.535 129.676C474.535 117.553 464.706 107.725 452.583 107.725C440.459 107.725 430.631 117.553 430.631 129.676C430.631 141.8 440.459 151.628 452.583 151.628Z" fill="url(#paint8_linear_501_1417)"/>
<path d="M462.826 137.726H442.338C441.756 137.725 441.198 137.494 440.786 137.082C440.375 136.671 440.143 136.113 440.143 135.531V123.823C440.143 123.241 440.375 122.683 440.786 122.272C441.198 121.86 441.756 121.629 442.338 121.628H462.826C463.408 121.629 463.966 121.86 464.378 122.272C464.789 122.683 465.021 123.241 465.021 123.823V135.531C465.021 136.113 464.789 136.671 464.378 137.082C463.966 137.494 463.408 137.725 462.826 137.726V137.726ZM442.338 123.091C442.144 123.092 441.958 123.169 441.821 123.306C441.683 123.443 441.606 123.629 441.606 123.823V135.531C441.606 135.725 441.683 135.911 441.821 136.048C441.958 136.185 442.144 136.262 442.338 136.263H462.826C463.02 136.262 463.206 136.185 463.343 136.048C463.481 135.911 463.558 135.725 463.558 135.531V123.823C463.558 123.629 463.481 123.443 463.343 123.306C463.206 123.169 463.02 123.092 462.826 123.091H442.338Z" fill="white"/>
<path d="M452.581 131.607C452.17 131.608 451.767 131.493 451.418 131.276L440.485 124.444C440.321 124.34 440.205 124.176 440.161 123.987C440.118 123.799 440.151 123.6 440.254 123.436C440.357 123.271 440.52 123.154 440.709 123.111C440.898 123.067 441.097 123.1 441.261 123.202L452.194 130.035C452.31 130.107 452.444 130.145 452.581 130.145C452.718 130.145 452.853 130.107 452.969 130.035L463.901 123.202C464.065 123.1 464.264 123.067 464.453 123.111C464.641 123.154 464.805 123.271 464.908 123.436C465.011 123.6 465.044 123.799 465.001 123.987C464.957 124.176 464.841 124.34 464.677 124.444L453.745 131.276C453.396 131.493 452.992 131.608 452.581 131.607V131.607Z" fill="white"/>
<path d="M182.574 238.705C194.698 238.705 204.526 228.876 204.526 216.753C204.526 204.629 194.698 194.801 182.574 194.801C170.45 194.801 160.622 204.629 160.622 216.753C160.622 228.876 170.45 238.705 182.574 238.705Z" fill="url(#paint9_linear_501_1417)"/>
<path d="M192.818 224.801H172.33C171.748 224.801 171.19 224.569 170.778 224.158C170.367 223.746 170.135 223.188 170.135 222.606V210.898C170.135 210.316 170.367 209.758 170.778 209.347C171.19 208.935 171.748 208.704 172.33 208.703H192.818C193.4 208.704 193.958 208.935 194.37 209.347C194.781 209.758 195.013 210.316 195.014 210.898V222.606C195.013 223.188 194.781 223.746 194.37 224.158C193.958 224.569 193.4 224.801 192.818 224.801ZM172.33 210.167C172.136 210.167 171.95 210.244 171.813 210.381C171.676 210.518 171.598 210.704 171.598 210.898V222.606C171.598 222.8 171.676 222.986 171.813 223.123C171.95 223.26 172.136 223.338 172.33 223.338H192.818C193.012 223.338 193.198 223.26 193.336 223.123C193.473 222.986 193.55 222.8 193.55 222.606V210.898C193.55 210.704 193.473 210.518 193.336 210.381C193.198 210.244 193.012 210.167 192.818 210.167H172.33Z" fill="white"/>
<path d="M189.571 224.801H174.845C174.589 224.802 174.336 224.734 174.114 224.606C173.891 224.477 173.706 224.292 173.578 224.07C173.449 223.847 173.382 223.595 173.382 223.338C173.382 223.081 173.45 222.829 173.578 222.606L178.014 214.923C178.142 214.701 178.327 214.516 178.549 214.387C178.772 214.259 179.024 214.191 179.281 214.191C179.538 214.191 179.79 214.259 180.013 214.387C180.235 214.516 180.42 214.701 180.549 214.923L183.413 219.885L185.073 217.01C185.201 216.788 185.386 216.603 185.609 216.475C185.831 216.346 186.083 216.279 186.34 216.279C186.597 216.279 186.85 216.346 187.072 216.475C187.295 216.603 187.479 216.788 187.608 217.01L190.838 222.606C190.967 222.829 191.034 223.081 191.034 223.338C191.034 223.595 190.967 223.847 190.838 224.07C190.71 224.292 190.525 224.477 190.303 224.606C190.08 224.734 189.828 224.802 189.571 224.801H189.571ZM189.571 223.338L186.34 217.742L184.047 221.714C183.983 221.826 183.89 221.918 183.779 221.982C183.668 222.047 183.542 222.08 183.413 222.08V222.08C183.285 222.08 183.159 222.047 183.047 221.982C182.936 221.918 182.844 221.826 182.779 221.714L179.281 215.655L174.845 223.338H189.571Z" fill="white"/>
<path d="M190.624 214.557C191.432 214.557 192.087 213.902 192.087 213.093C192.087 212.285 191.432 211.63 190.624 211.63C189.815 211.63 189.16 212.285 189.16 213.093C189.16 213.902 189.815 214.557 190.624 214.557Z" fill="white"/>
<path d="M318.676 236.509C330.799 236.509 340.627 226.681 340.627 214.557C340.627 202.434 330.799 192.605 318.676 192.605C306.552 192.605 296.724 202.434 296.724 214.557C296.724 226.681 306.552 236.509 318.676 236.509Z" fill="url(#paint10_linear_501_1417)"/>
<path d="M318.675 214.923C317.373 214.923 316.1 214.537 315.017 213.813C313.934 213.09 313.09 212.061 312.591 210.858C312.093 209.654 311.962 208.33 312.216 207.053C312.47 205.775 313.098 204.602 314.019 203.681C314.94 202.76 316.113 202.133 317.391 201.878C318.668 201.624 319.992 201.755 321.196 202.253C322.399 202.752 323.427 203.596 324.151 204.679C324.875 205.762 325.261 207.035 325.261 208.338C325.259 210.084 324.565 211.757 323.33 212.992C322.095 214.227 320.421 214.921 318.675 214.923V214.923ZM318.675 203.215C317.662 203.215 316.672 203.516 315.83 204.079C314.987 204.641 314.331 205.441 313.943 206.377C313.556 207.313 313.454 208.343 313.652 209.337C313.849 210.33 314.337 211.243 315.054 211.959C315.77 212.676 316.683 213.164 317.676 213.361C318.67 213.559 319.7 213.457 320.636 213.07C321.571 212.682 322.371 212.026 322.934 211.183C323.497 210.341 323.798 209.351 323.798 208.338C323.796 206.98 323.256 205.678 322.296 204.717C321.335 203.757 320.033 203.217 318.675 203.215Z" fill="white"/>
<path d="M324.529 227.363H312.822C312.143 227.362 311.492 227.092 311.012 226.612C310.532 226.132 310.262 225.481 310.261 224.802C310.261 222.57 311.147 220.429 312.725 218.851C314.304 217.273 316.444 216.387 318.676 216.387C320.907 216.387 323.048 217.273 324.626 218.851C326.204 220.429 327.091 222.57 327.091 224.802C327.09 225.481 326.82 226.132 326.339 226.612C325.859 227.092 325.208 227.362 324.529 227.363ZM318.676 217.85C316.833 217.852 315.066 218.585 313.763 219.889C312.459 221.192 311.726 222.959 311.724 224.802C311.725 225.093 311.84 225.372 312.046 225.577C312.252 225.783 312.531 225.899 312.822 225.899H324.529C324.82 225.899 325.099 225.783 325.305 225.577C325.511 225.372 325.627 225.093 325.627 224.802C325.625 222.959 324.892 221.192 323.589 219.889C322.286 218.585 320.519 217.852 318.676 217.85V217.85Z" fill="white"/>
<path d="M106.788 345.205H115.759L120.026 310.603L106.786 310.603L106.788 345.205Z" fill="#FFB8B8"/>
<path d="M133.06 353.533L104.865 353.534L104.865 342.641L122.166 342.641C125.055 342.64 127.826 343.788 129.869 345.831C131.912 347.873 133.059 350.644 133.06 353.533V353.533L133.06 353.533Z" fill="#2F2E41"/>
<path d="M73.1274 345.205H82.0984L86.3659 310.603L73.126 310.603L73.1274 345.205Z" fill="#FFB8B8"/>
<path d="M99.4004 353.533L71.2063 353.534L71.2058 342.641L88.5067 342.641C91.3958 342.64 94.1666 343.788 96.2095 345.831C98.2525 347.873 99.4003 350.644 99.4004 353.533V353.533L99.4004 353.533Z" fill="#2F2E41"/>
<path d="M74.2238 242.149C75.1903 241.528 76.0088 240.701 76.6215 239.729C77.2342 238.757 77.6263 237.662 77.7702 236.522C77.914 235.382 77.8062 234.224 77.4542 233.13C77.1022 232.036 76.5146 231.033 75.7328 230.191L81.6397 146.365L64.6248 148.015L64.1575 230.106C62.8295 231.513 62.0638 233.358 62.0055 235.292C61.9473 237.226 62.6004 239.114 63.8412 240.599C65.0821 242.083 66.8243 243.061 68.7379 243.347C70.6515 243.633 72.6034 243.206 74.2239 242.149H74.2238Z" fill="#FFB8B8"/>
<path d="M107.055 327.777C106.25 327.775 105.474 327.478 104.871 326.944C104.269 326.41 103.883 325.674 103.785 324.875L98.5703 281.262C98.497 280.648 98.2038 280.082 97.7451 279.667C97.2864 279.252 96.693 279.017 96.0746 279.006C95.4563 278.994 94.8547 279.207 94.3809 279.605C93.9072 280.002 93.5933 280.558 93.4974 281.169L86.9286 322.927C86.8097 323.703 86.4159 324.411 85.8189 324.922C85.2218 325.432 84.4614 325.711 83.6759 325.708H73.0292C72.5947 325.708 72.1645 325.622 71.7634 325.455C71.3622 325.288 70.9982 325.043 70.6921 324.735C70.386 324.426 70.144 324.06 69.9799 323.658C69.8159 323.255 69.7332 322.825 69.7364 322.39L74.8177 229.801C74.8196 229.013 75.1058 228.252 75.6238 227.658C76.1418 227.064 76.8568 226.676 77.6374 226.567L117.146 220.832C117.616 220.764 118.094 220.798 118.549 220.932C119.004 221.066 119.425 221.297 119.782 221.609C120.14 221.92 120.426 222.305 120.621 222.738C120.816 223.17 120.915 223.64 120.912 224.114L120.223 324.036C120.217 324.879 119.889 325.687 119.305 326.294C118.722 326.901 117.928 327.262 117.087 327.302L107.211 327.773C107.159 327.776 107.107 327.777 107.055 327.777Z" fill="url(#paint11_linear_501_1417)"/>
<path d="M86.5733 233.299C82.7731 233.284 79.0039 232.613 75.4322 231.315C74.8267 231.092 74.3008 230.695 73.9208 230.173C73.5408 229.652 73.3237 229.029 73.297 228.385C72.9561 220.821 70.9621 181.888 65.1568 158.139C64.0285 153.481 64.3045 148.592 65.9499 144.09C67.5954 139.588 70.5368 135.674 74.4033 132.841C74.7156 132.617 75.0339 132.396 75.3584 132.18C78.7159 129.945 82.5895 128.606 86.6106 128.291C90.6317 127.976 94.6666 128.695 98.3314 130.379C102.117 132.074 105.407 134.708 107.887 138.033C110.367 141.357 111.955 145.261 112.5 149.373L121.967 219.656C122.028 220.096 121.999 220.543 121.882 220.97C121.765 221.398 121.562 221.798 121.286 222.145C121.016 222.49 120.678 222.776 120.294 222.986C119.91 223.197 119.487 223.327 119.051 223.369C115.771 223.696 108.968 224.968 100.261 229.805C96.0734 232.125 91.3599 233.328 86.5733 233.299V233.299Z" fill="url(#paint12_linear_501_1417)"/>
<path d="M75.0005 175.039L59.4215 170.816C58.5792 170.586 57.8622 170.032 57.428 169.275C56.9937 168.517 56.8776 167.619 57.1051 166.776L62.5818 146.577C63.1684 144.413 64.5353 142.543 66.4189 141.327C68.3026 140.112 70.5696 139.637 72.7828 139.994C74.996 140.351 76.9986 141.514 78.4046 143.261C79.8105 145.007 80.5202 147.211 80.3968 149.45L79.15 172.043C79.1231 172.533 78.987 173.01 78.7517 173.441C78.5164 173.871 78.1879 174.244 77.7901 174.531C77.3924 174.818 76.9355 175.013 76.4528 175.101C75.9702 175.189 75.474 175.168 75.0005 175.039V175.039Z" fill="url(#paint13_linear_501_1417)"/>
<path d="M92.3421 120.837C102.268 120.837 110.314 112.79 110.314 102.865C110.314 92.9389 102.268 84.8926 92.3421 84.8926C82.4165 84.8926 74.3701 92.9389 74.3701 102.865C74.3701 112.79 82.4165 120.837 92.3421 120.837Z" fill="#FFB8B8"/>
<path d="M157.47 138.174C157.38 138.568 157.321 138.97 157.295 139.374L125.861 157.507L118.221 153.109L110.076 163.772L126.421 175.422L162.281 147.131C163.744 147.672 165.337 147.755 166.848 147.369C168.359 146.983 169.716 146.146 170.74 144.97C171.764 143.793 172.405 142.333 172.579 140.783C172.753 139.234 172.45 137.668 171.712 136.294C170.974 134.92 169.836 133.803 168.448 133.092C167.06 132.382 165.488 132.11 163.942 132.314C162.396 132.518 160.948 133.188 159.792 134.235C158.636 135.281 157.826 136.655 157.47 138.174V138.174Z" fill="#FFB8B8"/>
<path d="M123.256 158.383L109.716 167.17C108.983 167.644 108.092 167.808 107.238 167.627C106.384 167.445 105.637 166.932 105.161 166.2L93.768 148.644C92.5475 146.764 92.0665 144.498 92.4177 142.284C92.7689 140.07 93.9275 138.064 95.6699 136.654C97.4124 135.243 99.6154 134.528 101.854 134.645C104.093 134.763 106.209 135.705 107.794 137.291L123.792 153.292C124.139 153.639 124.404 154.059 124.568 154.522C124.731 154.984 124.79 155.478 124.738 155.965C124.687 156.453 124.527 156.924 124.271 157.342C124.014 157.76 123.667 158.116 123.256 158.383Z" fill="url(#paint14_linear_501_1417)"/>
<path d="M79.6223 117.083C82.9751 120.655 89.2016 118.738 89.6385 113.859C89.6728 113.48 89.6703 113.099 89.6311 112.72C89.4055 110.559 88.1569 108.597 88.456 106.315C88.5237 105.747 88.7353 105.206 89.0707 104.743C91.7425 101.165 98.0141 106.343 100.536 103.104C102.082 101.118 100.264 97.9913 101.451 95.7717C103.017 92.8421 107.655 94.2873 110.564 92.6829C113.8 90.8979 113.606 85.9326 111.476 82.9124C108.878 79.2292 104.323 77.2638 99.8244 76.9805C95.326 76.6973 90.8586 77.9133 86.6589 79.55C81.8873 81.4095 77.1555 83.9795 74.219 88.1753C70.648 93.2777 70.3044 100.138 72.0903 106.104C73.1767 109.733 76.8844 114.167 79.6223 117.083Z" fill="#2F2E41"/>
<path d="M150.738 353.586H48.2962C48.1021 353.586 47.916 353.508 47.7788 353.371C47.6415 353.234 47.5645 353.048 47.5645 352.854C47.5645 352.66 47.6415 352.474 47.7788 352.336C47.916 352.199 48.1021 352.122 48.2962 352.122H150.738C150.932 352.122 151.118 352.199 151.256 352.336C151.393 352.474 151.47 352.66 151.47 352.854C151.47 353.048 151.393 353.234 151.256 353.371C151.118 353.508 150.932 353.586 150.738 353.586Z" fill="#3F3D56"/>
<path d="M311.691 255.788H163.909C162.293 255.788 160.982 257.099 160.982 258.715V297.351C160.982 298.967 162.293 300.278 163.909 300.278H311.691C313.307 300.278 314.618 298.967 314.618 297.351V258.715C314.618 257.099 313.307 255.788 311.691 255.788Z" fill="white"/>
<path d="M284.773 271.087H190.826C190.298 271.087 189.791 270.877 189.417 270.504C189.044 270.13 188.834 269.624 188.834 269.095C188.834 268.567 189.044 268.06 189.417 267.687C189.791 267.313 190.298 267.104 190.826 267.104H284.773C285.302 267.104 285.808 267.313 286.182 267.687C286.555 268.06 286.765 268.567 286.765 269.095C286.765 269.624 286.555 270.13 286.182 270.504C285.808 270.877 285.302 271.087 284.773 271.087V271.087Z" fill="url(#paint15_linear_501_1417)"/>
<path d="M284.773 280.025H190.825C190.298 280.024 189.792 279.814 189.419 279.44C189.046 279.067 188.837 278.561 188.837 278.033C188.837 277.505 189.046 276.999 189.419 276.626C189.792 276.252 190.298 276.042 190.825 276.041H284.773C285.3 276.042 285.806 276.252 286.179 276.626C286.552 276.999 286.761 277.505 286.761 278.033C286.761 278.561 286.552 279.067 286.179 279.44C285.806 279.814 285.3 280.024 284.773 280.025Z" fill="url(#paint16_linear_501_1417)"/>
<path d="M246.746 288.963H190.826C190.298 288.963 189.791 288.753 189.417 288.38C189.044 288.006 188.834 287.5 188.834 286.971C188.834 286.443 189.044 285.936 189.417 285.563C189.791 285.189 190.298 284.979 190.826 284.979H246.746C247.275 284.979 247.781 285.189 248.155 285.563C248.528 285.936 248.738 286.443 248.738 286.971C248.738 287.5 248.528 288.006 248.155 288.38C247.781 288.753 247.275 288.963 246.746 288.963Z" fill="url(#paint17_linear_501_1417)"/>
<defs>
<linearGradient id="paint0_linear_501_1417" x1="38.5156" y1="223.915" x2="92.6092" y2="244.703" gradientUnits="userSpaceOnUse">
<stop stop-color="#3C8CE7"/>
<stop offset="1" stop-color="#00FFC2"/>
</linearGradient>
<linearGradient id="paint1_linear_501_1417" x1="48.6133" y1="248.657" x2="105.512" y2="306.207" gradientUnits="userSpaceOnUse">
<stop stop-color="#3C8CE7"/>
<stop offset="1" stop-color="#00FFC2"/>
</linearGradient>
<linearGradient id="paint2_linear_501_1417" x1="0.00195458" y1="263.107" x2="63.1073" y2="278.389" gradientUnits="userSpaceOnUse">
<stop stop-color="#7CFFB3"/>
<stop offset="1" stop-color="#71D1FF"/>
</linearGradient>
<linearGradient id="paint3_linear_501_1417" x1="577.988" y1="237.317" x2="699.884" y2="281.272" gradientUnits="userSpaceOnUse">
<stop stop-color="#94E69A"/>
<stop offset="1" stop-color="#21B1C5"/>
<stop offset="1" stop-color="#00FFC2"/>
</linearGradient>
<linearGradient id="paint4_linear_501_1417" x1="149.595" y1="8.62305" x2="160.539" y2="19.5674" gradientUnits="userSpaceOnUse">
<stop stop-color="#CE9FFC"/>
<stop offset="1" stop-color="#7367F0"/>
</linearGradient>
<linearGradient id="paint5_linear_501_1417" x1="165.327" y1="15.1701" x2="174.275" y2="19.4023" gradientUnits="userSpaceOnUse">
<stop stop-color="#94E69A"/>
<stop offset="1" stop-color="#21B1C5"/>
<stop offset="1" stop-color="#00FFC2"/>
</linearGradient>
<linearGradient id="paint6_linear_501_1417" x1="160.622" y1="136.443" x2="197.911" y2="152.149" gradientUnits="userSpaceOnUse">
<stop stop-color="#8EEBED"/>
<stop offset="1" stop-color="#4890FF"/>
</linearGradient>
<linearGradient id="paint7_linear_501_1417" x1="295.261" y1="136.481" x2="339.165" y2="136.439" gradientUnits="userSpaceOnUse">
<stop stop-color="#F5643A"/>
<stop offset="0.9999" stop-color="#FFE51A"/>
<stop offset="1" stop-color="#F8DC02"/>
</linearGradient>
<linearGradient id="paint8_linear_501_1417" x1="430.631" y1="107.725" x2="474.535" y2="151.628" gradientUnits="userSpaceOnUse">
<stop stop-color="#CE9FFC"/>
<stop offset="1" stop-color="#7367F0"/>
</linearGradient>
<linearGradient id="paint9_linear_501_1417" x1="160.622" y1="222.222" x2="199.154" y2="238.456" gradientUnits="userSpaceOnUse">
<stop stop-color="#7CFFB3"/>
<stop offset="1" stop-color="#71D1FF"/>
</linearGradient>
<linearGradient id="paint10_linear_501_1417" x1="296.724" y1="192.605" x2="340.627" y2="236.509" gradientUnits="userSpaceOnUse">
<stop stop-color="#F095FF"/>
<stop offset="1" stop-color="#F64848"/>
</linearGradient>
<linearGradient id="paint11_linear_501_1417" x1="69.7363" y1="220.798" x2="153.028" y2="260.642" gradientUnits="userSpaceOnUse">
<stop stop-color="#CE9FFC"/>
<stop offset="1" stop-color="#7367F0"/>
</linearGradient>
<linearGradient id="paint12_linear_501_1417" x1="64.4746" y1="193.894" x2="118.058" y2="205.693" gradientUnits="userSpaceOnUse">
<stop stop-color="#FF6FD8"/>
<stop offset="1" stop-color="#7652FF"/>
</linearGradient>
<linearGradient id="paint13_linear_501_1417" x1="71.999" y1="139.415" x2="52.6245" y2="169.385" gradientUnits="userSpaceOnUse">
<stop stop-color="#FF6FD8"/>
<stop offset="1" stop-color="#7652FF"/>
</linearGradient>
<linearGradient id="paint14_linear_501_1417" x1="92.3057" y1="155.299" x2="119.727" y2="166.123" gradientUnits="userSpaceOnUse">
<stop stop-color="#FF6FD8"/>
<stop offset="1" stop-color="#7652FF"/>
</linearGradient>
<linearGradient id="paint15_linear_501_1417" x1="188.834" y1="269.643" x2="189.739" y2="279.014" gradientUnits="userSpaceOnUse">
<stop stop-color="#8EEBED"/>
<stop offset="1" stop-color="#4890FF"/>
</linearGradient>
<linearGradient id="paint16_linear_501_1417" x1="188.837" y1="278.581" x2="189.742" y2="287.953" gradientUnits="userSpaceOnUse">
<stop stop-color="#8EEBED"/>
<stop offset="1" stop-color="#4890FF"/>
</linearGradient>
<linearGradient id="paint17_linear_501_1417" x1="188.834" y1="287.519" x2="190.291" y2="296.747" gradientUnits="userSpaceOnUse">
<stop stop-color="#8EEBED"/>
<stop offset="1" stop-color="#4890FF"/>
</linearGradient>
</defs>
</svg>
