<svg width="33" height="32" viewBox="0 0 33 32" fill="none" xmlns="http://www.w3.org/2000/svg">
<path fill-rule="evenodd" clip-rule="evenodd" d="M14.1057 16.9795L8.85795 15.2302C6.50473 14.4458 5.32812 14.0536 5.32812 13.3329C5.32812 12.6121 6.50473 12.2199 8.85795 11.4355L23.3711 6.59777C25.0269 6.04584 25.8548 5.76988 26.2918 6.20689C26.7288 6.64391 26.4529 7.4718 25.9009 9.12759L21.0632 23.6408C20.2788 25.994 19.8866 27.1706 19.1658 27.1706C18.4451 27.1706 18.0529 25.994 17.2685 23.6408L15.5196 18.394L21.2065 12.7071C21.597 12.3166 21.597 11.6834 21.2065 11.2929C20.8159 10.9024 20.1828 10.9024 19.7922 11.2929L14.1057 16.9795Z" fill="white"/>
</svg>
