<svg width="32" height="32" viewBox="0 0 32 32" fill="none" xmlns="http://www.w3.org/2000/svg">
<path fill-rule="evenodd" clip-rule="evenodd" d="M13.6057 16.9795L8.35795 15.2302C6.00473 14.4458 4.82812 14.0536 4.82812 13.3329C4.82812 12.6121 6.00473 12.2199 8.35795 11.4355L22.8711 6.59777C24.5269 6.04584 25.3548 5.76988 25.7918 6.20689C26.2288 6.64391 25.9529 7.4718 25.4009 9.12759L20.5632 23.6408C19.7788 25.994 19.3866 27.1706 18.6658 27.1706C17.9451 27.1706 17.5529 25.994 16.7685 23.6408L15.0196 18.394L20.7065 12.7071C21.097 12.3166 21.097 11.6834 20.7065 11.2929C20.3159 10.9024 19.6828 10.9024 19.2922 11.2929L13.6057 16.9795Z" fill="white"/>
</svg>
