<svg width="81" height="80" viewBox="0 0 81 80" fill="none" xmlns="http://www.w3.org/2000/svg">
<path d="M53 70H48C47.25 70 46.75 69.5 46.75 68.75C46.75 68 47.25 67.5 48 67.5H53C60.5 67.5 66.75 61.25 66.75 53.75V51.25C66.75 50.5 67.25 50 68 50C68.75 50 69.25 50.5 69.25 51.25V53.75C69.25 62.75 62 70 53 70Z" fill="#004463"/>
<path d="M49.25 68.75C49.25 70.25 48.25 71.25 46.75 71.25H44.25C42.75 71.25 41.75 70.25 41.75 68.75C41.75 67.25 42.75 66.25 44.25 66.25H46.75C48.25 66.25 49.25 67.25 49.25 68.75Z" fill="#607D95"/>
<path d="M65.5 40C64.75 40 64.25 39.5 64.25 38.75V31.25C64.25 30.5 64.75 30 65.5 30C66.25 30 66.75 30.5 66.75 31.25V38.75C66.75 39.5 66.25 40 65.5 40ZM13 40C12.25 40 11.75 39.5 11.75 38.75V31.25C11.75 30.5 12.25 30 13 30C13.75 30 14.25 30.5 14.25 31.25V38.75C14.25 39.5 13.75 40 13 40Z" fill="#004463"/>
<path d="M63 38.75H68C69.5 38.75 70.5 39.75 70.5 41.25V51.25C70.5 52.75 69.5 53.75 68 53.75H63V38.75Z" fill="#607D95"/>
<path d="M65.2527 32.5C66.7527 32.5 68.0027 31.25 67.7527 29.75C66.5027 15.25 54.2527 3.75 39.2527 3.75C24.2527 3.75 12.0027 15.25 10.7527 29.75C10.5027 31.25 11.7527 32.5 13.2527 32.5C14.5027 32.5 15.5027 31.5 15.7527 30.25C16.7527 18.25 27.0027 8.75 39.5027 8.75C52.0027 8.75 62.0027 18.25 63.2527 30.25C63.0027 31.5 64.0027 32.5 65.2527 32.5Z" fill="#01A6FF"/>
<path d="M15.7527 29.75C17.0027 16 28.0027 5 41.7527 3.75H39.2527C24.2527 3.75 12.0027 15.25 10.7527 29.75C10.5027 31.25 11.7527 32.5 13.2527 32.5C14.5027 32.5 15.5027 31.5 15.7527 30.25C15.5027 30.25 15.7527 30 15.7527 29.75C15.7527 29.75 15.5027 29.75 15.7527 29.75ZM44.2527 8.75C43.5027 8.75 42.5027 8.75 41.7527 9C53.0027 10.25 61.7527 19.25 63.0027 30.5C63.0027 31.75 64.2527 32.75 65.5027 32.75C67.0027 32.75 68.0027 31.5 68.0027 30.25C66.5027 18 56.5027 8.75 44.2527 8.75Z" fill="#006EF4"/>
<path d="M48 46.25H30.5C29 46.25 28 47.25 28 48.75V58.75C28 60.25 29 61.25 30.5 61.25H33V66.25L40.5 61.25H48C49.5 61.25 50.5 60.25 50.5 58.75V48.75C50.5 47.25 49.5 46.25 48 46.25Z" fill="#EEF2FA"/>
<path d="M38 63V61.25H35.5C34 61.25 33 60.25 33 58.75V48.75C33 47.25 34 46.25 35.5 46.25H30.5C29 46.25 28 47.25 28 48.75V58.75C28 60.25 29 61.25 30.5 61.25H33V66.25L38 63Z" fill="#D5E5F2"/>
<path d="M18 56.25C16.5 56.25 15.5 55.25 15.5 53.75V38.75C15.5 37.25 16.5 36.25 18 36.25C19.5 36.25 20.5 37.25 20.5 38.75V53.75C20.5 55.25 19.5 56.25 18 56.25ZM60.5 36.25C62 36.25 63 37.25 63 38.75V53.75C63 55.25 62 56.25 60.5 56.25C59 56.25 58 55.25 58 53.75V38.75C58 37.25 59 36.25 60.5 36.25Z" fill="#4B6C85"/>
<path d="M18 51.25C16.5 51.25 15.5 50.25 15.5 48.75V53.75C15.5 55.25 16.5 56.25 18 56.25C19.5 56.25 20.5 55.25 20.5 53.75V48.75C20.5 50.25 19.5 51.25 18 51.25ZM60.5 51.25C59 51.25 58 50.25 58 48.75V53.75C58 55.25 59 56.25 60.5 56.25C62 56.25 63 55.25 63 53.75V48.75C63 50.25 62 51.25 60.5 51.25Z" fill="#40657C"/>
<path d="M15.5 53.75H10.5C9 53.75 8 52.75 8 51.25V41.25C8 39.75 9 38.75 10.5 38.75H15.5V53.75Z" fill="#607D95"/>
<path d="M11.75 38.75V47.5C11.75 49 10.75 50 9.25 50H8V51.25C8 52.75 9 53.75 10.5 53.75H15.5V38.75H11.75ZM66.75 38.75V47.5C66.75 49 67.75 50 69.25 50H70.5V51.25C70.5 52.75 69.5 53.75 68 53.75H63V38.75H66.75Z" fill="#4B6C85"/>
<path d="M45.752 52.5H32.752C32.002 52.5 31.502 52 31.502 51.25C31.502 50.5 32.002 50 32.752 50H45.752C46.502 50 47.002 50.5 47.002 51.25C47.002 52 46.502 52.5 45.752 52.5ZM40.752 57.5H32.752C32.002 57.5 31.502 57 31.502 56.25C31.502 55.5 32.002 55 32.752 55H40.752C41.502 55 42.002 55.5 42.002 56.25C42.002 57 41.502 57.5 40.752 57.5Z" fill="#99B5CE"/>
</svg>
