<svg width="29" height="30" viewBox="0 0 29 30" fill="none" xmlns="http://www.w3.org/2000/svg">
<path d="M24.7863 5.4375C24.0499 5.4375 23.4529 6.03445 23.4529 6.77083C23.4529 7.50721 24.0499 8.10417 24.7863 8.10417C24.9402 8.10417 25.0133 8.12635 25.0359 8.13491C25.0493 8.15632 25.0841 8.22269 25.1145 8.36727C25.1469 8.52071 25.1673 8.72799 25.1673 8.99955L25.1673 20.9995C25.1673 21.2711 25.1469 21.4784 25.1145 21.6318C25.0841 21.7761 25.0494 21.8425 25.0359 21.8639C25.0134 21.8725 24.9402 21.8946 24.7863 21.8946C24.0499 21.8946 23.4529 22.4916 23.4529 23.228C23.4529 23.9644 24.0499 24.5613 24.7863 24.5613C25.7921 24.5613 26.6853 24.1911 27.2474 23.3542C27.7357 22.6272 27.834 21.7405 27.834 20.9995L27.834 8.99955C27.834 8.25859 27.7357 7.37191 27.2474 6.6448C26.6854 5.80794 25.7923 5.4375 24.7863 5.4375Z" fill="white"/>
<path d="M14.5006 7.79896C14.5006 7.13622 15.0379 6.59896 15.7006 6.59896C16.3634 6.59896 16.9006 7.13622 16.9006 7.79896L16.9006 12.599C16.9006 13.2617 16.3634 13.799 15.7006 13.799C15.0379 13.799 14.5006 13.2617 14.5006 12.599L14.5006 7.79896Z" fill="white"/>
<path fill-rule="evenodd" clip-rule="evenodd" d="M14.4402 1.66602C13.3701 1.66599 12.4781 1.66597 11.7524 1.73175C10.9947 1.80042 10.2884 1.94911 9.63397 2.32696C8.88401 2.75995 8.26124 3.38272 7.82825 4.13268C7.4504 4.78713 7.30171 5.49344 7.23304 6.25111C7.16726 6.97683 7.16728 7.86881 7.1673 8.93891L7.1673 21.0598C7.16728 22.1299 7.16726 23.0219 7.23304 23.7476C7.30171 24.5053 7.4504 25.2116 7.82824 25.866C8.26123 26.616 8.88401 27.2388 9.63397 27.6717C10.2884 28.0496 10.9947 28.1983 11.7524 28.267C12.4781 28.3327 13.3701 28.3327 14.4402 28.3327L14.5611 28.3327C15.6311 28.3327 16.5232 28.3327 17.2489 28.267C18.0065 28.1983 18.7129 28.0496 19.3673 27.6717C20.1173 27.2388 20.74 26.616 21.173 25.866C21.5509 25.2116 21.6996 24.5053 21.7682 23.7476C21.834 23.0219 21.834 22.1299 21.834 21.0598L21.834 8.93889C21.834 7.8688 21.834 6.97683 21.7682 6.25111C21.6996 5.49344 21.5509 4.78713 21.173 4.13268C20.74 3.38272 20.1173 2.75995 19.3673 2.32696C18.7129 1.94911 18.0065 1.80042 17.2489 1.73175C16.5232 1.66597 15.6312 1.66599 14.5611 1.66602L14.4402 1.66602ZM10.9673 4.63636C11.1482 4.5319 11.4204 4.43944 11.9931 4.38753C12.5841 4.33396 13.3546 4.33268 14.5006 4.33268C15.6467 4.33268 16.4171 4.33396 17.0082 4.38753C17.5809 4.43944 17.853 4.5319 18.034 4.63636C18.3785 4.8353 18.6647 5.12144 18.8636 5.46602C18.9681 5.64695 19.0606 5.9191 19.1125 6.49182C19.166 7.08286 19.1673 7.85327 19.1673 8.99935L19.1673 20.9994C19.1673 22.1454 19.166 22.9158 19.1125 23.5069C19.0606 24.0796 18.9681 24.3517 18.8636 24.5327C18.6647 24.8773 18.3785 25.1634 18.034 25.3623C17.853 25.4668 17.5809 25.5593 17.0082 25.6112C16.4171 25.6647 15.6467 25.666 14.5006 25.666C13.3546 25.666 12.5841 25.6647 11.9931 25.6112C11.4204 25.5593 11.1482 25.4668 10.9673 25.3623C10.6227 25.1634 10.3366 24.8773 10.1376 24.5327C10.0332 24.3517 9.94072 24.0796 9.88882 23.5069C9.83525 22.9158 9.83397 22.1454 9.83397 20.9994L9.83397 8.99935C9.83397 7.85327 9.83525 7.08286 9.88882 6.49182C9.94072 5.9191 10.0332 5.64695 10.1376 5.46602C10.3366 5.12144 10.6227 4.8353 10.9673 4.63636Z" fill="white"/>
<path d="M3.88674 8.36673C3.85438 8.52019 3.83397 8.7275 3.83397 8.99908L3.83397 20.9991C3.83397 21.2707 3.85438 21.4779 3.88673 21.6314C3.91715 21.7756 3.9518 21.842 3.96528 21.8634C3.98789 21.872 4.06105 21.8942 4.21484 21.8942C4.95122 21.8942 5.54817 22.4911 5.54817 23.2275C5.54817 23.9639 4.95122 24.5608 4.21484 24.5608C3.20901 24.5608 2.31582 24.1906 1.7538 23.3537C1.2655 22.6266 1.1673 21.74 1.1673 20.9991L1.1673 8.99909C1.1673 8.2582 1.26551 7.37153 1.75372 6.64441C2.31566 5.80748 3.20882 5.43701 4.21484 5.43701C4.95122 5.43701 5.54817 6.03397 5.54817 6.77035C5.54817 7.50673 4.95122 8.10368 4.21484 8.10368C4.06106 8.10368 3.98795 8.12582 3.96539 8.13439C3.95191 8.15584 3.9172 8.22223 3.88674 8.36673Z" fill="white"/>
</svg>
